<svg xmlns="http://www.w3.org/2000/svg" xmlns:xlink="http://www.w3.org/1999/xlink" width="2000" zoomAndPan="magnify" viewBox="0 0 1500 1499.999933" height="2000" preserveAspectRatio="xMidYMid meet" version="1.0"><path fill="#c4e5ff" d="M 580.28125 124.855469 C 503.359375 154.574219 175.152344 281.339844 94.511719 587.042969 C 2.554688 935.613281 277.566406 1346 657.726562 1421.613281 C 1052.070312 1500.058594 1497.5 1315.683594 1462.515625 1030.003906 C 1446.550781 899.679688 1269.039062 860.242188 1277.257812 706.738281 C 1285.273438 556.9375 1473.984375 483.511719 1454.21875 305.242188 C 1452.96875 294.054688 1448.992188 260.515625 1432.144531 226.964844 C 1336.519531 36.511719 903.445312 0.03125 580.28125 124.855469 " fill-opacity="1" fill-rule="nonzero"/><path fill="#329be2" d="M 311.5625 846.050781 L 1346.355469 848.308594 C 1355.394531 848.308594 1363.03125 841.570312 1364.179688 832.582031 L 1446.609375 188.40625 C 1448.613281 172.742188 1437.183594 157.941406 1421.417969 157.941406 L 400.023438 158.867188 L 311.5625 846.050781 " fill-opacity="1" fill-rule="nonzero"/><path fill="#ffffff" d="M 290.363281 845.222656 L 1304.472656 845.222656 C 1313.515625 845.222656 1321.152344 838.476562 1322.308594 829.460938 L 1404.21875 191.082031 C 1406.492188 173.34375 1392.753906 157.636719 1374.976562 157.636719 L 373.945312 157.636719 C 364.902344 157.636719 357.269531 164.386719 356.113281 173.402344 L 272.53125 824.828125 C 271.144531 835.640625 279.519531 845.222656 290.363281 845.222656 " fill-opacity="1" fill-rule="nonzero"/><path fill="#000000" d="M 741.621094 162.527344 L 721.511719 162.527344 C 720.128906 162.527344 719.007812 161.410156 719.007812 160.023438 C 719.007812 158.636719 720.128906 157.515625 721.511719 157.515625 L 741.621094 157.515625 C 743 157.515625 744.128906 158.636719 744.128906 160.023438 C 744.128906 161.410156 743 162.527344 741.621094 162.527344 " fill-opacity="1" fill-rule="nonzero"/><path fill="#000000" d="M 1097.875 162.527344 L 895.554688 162.527344 C 894.167969 162.527344 893.046875 161.410156 893.046875 160.023438 C 893.046875 158.636719 894.167969 157.515625 895.554688 157.515625 L 1097.875 157.515625 C 1099.261719 157.515625 1100.378906 158.636719 1100.378906 160.023438 C 1100.378906 161.410156 1099.261719 162.527344 1097.875 162.527344 " fill-opacity="1" fill-rule="nonzero"/><path fill="#000000" d="M 1304.773438 848.027344 L 290.65625 848.027344 C 284.78125 848.027344 279.179688 845.496094 275.289062 841.070312 C 271.386719 836.636719 269.582031 830.734375 270.339844 824.867188 L 353.917969 175.425781 C 355.230469 165.214844 363.96875 157.523438 374.238281 157.523438 L 513.539062 157.523438 C 514.925781 157.523438 516.046875 158.640625 516.046875 160.03125 C 516.046875 161.414062 514.925781 162.539062 513.539062 162.539062 L 374.238281 162.539062 C 366.484375 162.539062 359.886719 168.355469 358.894531 176.070312 L 275.316406 825.503906 C 274.742188 829.945312 276.105469 834.410156 279.054688 837.757812 C 281.992188 841.101562 286.21875 843.011719 290.65625 843.011719 L 1304.773438 843.011719 C 1312.523438 843.011719 1319.113281 837.199219 1320.109375 829.484375 L 1402.015625 193.050781 C 1403.007812 185.316406 1400.632812 177.539062 1395.5 171.695312 C 1390.371094 165.875 1383 162.539062 1375.269531 162.539062 L 1243.957031 162.539062 C 1242.566406 162.539062 1241.449219 161.414062 1241.449219 160.03125 C 1241.449219 158.640625 1242.566406 157.523438 1243.957031 157.523438 L 1375.269531 157.523438 C 1384.453125 157.523438 1393.195312 161.480469 1399.261719 168.375 C 1405.351562 175.3125 1408.171875 184.53125 1406.996094 193.691406 L 1325.089844 830.121094 C 1323.773438 840.328125 1315.042969 848.027344 1304.773438 848.027344 " fill-opacity="1" fill-rule="nonzero"/><path fill="#c4e5ff" d="M 409.878906 784.261719 L 432.472656 605.871094 L 368.527344 605.871094 L 345.941406 784.261719 L 409.878906 784.261719 " fill-opacity="1" fill-rule="nonzero"/><path fill="#c4e5ff" d="M 486.539062 784.261719 L 519.257812 537.894531 L 455.3125 537.894531 L 422.601562 784.261719 L 486.539062 784.261719 " fill-opacity="1" fill-rule="nonzero"/><path fill="#c4e5ff" d="M 563.199219 784.261719 L 593.027344 556.695312 L 529.082031 556.695312 L 499.265625 784.261719 L 563.199219 784.261719 " fill-opacity="1" fill-rule="nonzero"/><path fill="#57b6ff" d="M 639.863281 784.261719 L 681.257812 472.804688 L 617.308594 472.804688 L 575.925781 784.261719 L 639.863281 784.261719 " fill-opacity="1" fill-rule="nonzero"/><path fill="#c4e5ff" d="M 716.523438 784.265625 L 768.046875 391.804688 L 704.09375 391.804688 L 652.589844 784.265625 L 716.523438 784.265625 " fill-opacity="1" fill-rule="nonzero"/><path fill="#c4e5ff" d="M 793.179688 784.265625 L 843.257812 416.398438 L 779.308594 416.398438 L 729.246094 784.265625 L 793.179688 784.265625 " fill-opacity="1" fill-rule="nonzero"/><path fill="#c4e5ff" d="M 871.292969 784.261719 L 930.035156 355.644531 L 866.09375 355.644531 L 807.351562 784.261719 L 871.292969 784.261719 " fill-opacity="1" fill-rule="nonzero"/><path fill="#c4e5ff" d="M 949.394531 784.085938 L 1012.488281 334.25 L 948.542969 334.25 L 885.460938 784.085938 L 949.394531 784.085938 " fill-opacity="1" fill-rule="nonzero"/><path fill="#c4e5ff" d="M 1027.507812 784.085938 L 1092.640625 310.074219 L 1028.6875 310.074219 L 963.570312 784.085938 L 1027.507812 784.085938 " fill-opacity="1" fill-rule="nonzero"/><path fill="#c4e5ff" d="M 1105.605469 784.265625 L 1183.730469 242.664062 L 1119.785156 242.664062 L 1041.679688 784.265625 L 1105.605469 784.265625 " fill-opacity="1" fill-rule="nonzero"/><path fill="#c4e5ff" d="M 1183.714844 784.269531 L 1247.671875 317.746094 L 1183.722656 317.746094 L 1119.773438 784.269531 L 1183.714844 784.269531 " fill-opacity="1" fill-rule="nonzero"/><path fill="#c4e5ff" d="M 1261.828125 784.261719 L 1334.648438 268.050781 L 1270.703125 268.050781 L 1197.898438 784.261719 L 1261.828125 784.261719 " fill-opacity="1" fill-rule="nonzero"/><path fill="#000000" d="M 814.90625 380.390625 C 814.238281 380.390625 813.601562 380.128906 813.132812 379.65625 L 770.777344 337.304688 C 769.800781 336.324219 769.800781 334.730469 770.777344 333.753906 C 771.753906 332.777344 773.347656 332.777344 774.324219 333.753906 L 814.90625 374.332031 L 942.425781 246.816406 C 943.367188 245.875 945.023438 245.875 945.972656 246.816406 L 999.152344 299.988281 L 1080.519531 218.613281 C 1081.496094 217.636719 1083.089844 217.636719 1084.070312 218.613281 C 1085.046875 219.59375 1085.046875 221.1875 1084.070312 222.164062 L 1000.921875 305.3125 C 999.992188 306.253906 998.316406 306.253906 997.382812 305.3125 L 944.199219 252.128906 L 816.683594 379.65625 C 816.210938 380.128906 815.566406 380.390625 814.90625 380.390625 " fill-opacity="1" fill-rule="nonzero"/><path fill="#000000" d="M 379.425781 570.582031 C 378.785156 570.582031 378.140625 570.34375 377.652344 569.847656 C 376.671875 568.875 376.671875 567.28125 377.652344 566.308594 L 488.132812 455.824219 C 489.074219 454.882812 490.742188 454.882812 491.679688 455.824219 L 549.59375 513.734375 L 728.105469 335.222656 C 729.082031 334.234375 730.675781 334.234375 731.660156 335.222656 C 732.636719 336.195312 732.636719 337.78125 731.660156 338.761719 L 551.363281 519.050781 C 550.382812 520.03125 548.796875 520.03125 547.816406 519.050781 L 489.90625 461.140625 L 381.199219 569.847656 C 380.707031 570.34375 380.066406 570.582031 379.425781 570.582031 " fill-opacity="1" fill-rule="nonzero"/><path fill="#329be2" d="M 479.136719 457.597656 C 479.136719 451.65625 483.957031 446.832031 489.902344 446.832031 C 495.851562 446.832031 500.671875 451.65625 500.671875 457.597656 C 500.671875 463.550781 495.851562 468.371094 489.902344 468.371094 C 483.957031 468.371094 479.136719 463.550781 479.136719 457.597656 " fill-opacity="1" fill-rule="nonzero"/><path fill="#000000" d="M 489.902344 441.816406 C 481.199219 441.816406 474.117188 448.894531 474.117188 457.601562 C 474.117188 466.308594 481.199219 473.386719 489.902344 473.386719 C 498.605469 473.386719 505.691406 466.308594 505.691406 457.601562 C 505.691406 448.894531 498.605469 441.816406 489.902344 441.816406 Z M 489.902344 446.832031 C 495.851562 446.832031 500.671875 451.652344 500.671875 457.601562 C 500.671875 463.550781 495.851562 468.371094 489.902344 468.371094 C 483.957031 468.371094 479.136719 463.550781 479.136719 457.601562 C 479.136719 451.652344 483.957031 446.832031 489.902344 446.832031 " fill-opacity="1" fill-rule="nonzero"/><path fill="#57b6ff" d="M 804.464844 377.441406 C 804.464844 371.492188 809.289062 366.675781 815.242188 366.675781 C 821.179688 366.675781 826.007812 371.492188 826.007812 377.441406 C 826.007812 383.390625 821.179688 388.21875 815.242188 388.21875 C 809.289062 388.21875 804.464844 383.390625 804.464844 377.441406 " fill-opacity="1" fill-rule="nonzero"/><path fill="#000000" d="M 815.234375 361.660156 C 806.523438 361.660156 799.453125 368.742188 799.453125 377.441406 C 799.453125 386.152344 806.523438 393.234375 815.234375 393.234375 C 823.933594 393.234375 831.015625 386.152344 831.015625 377.441406 C 831.015625 368.742188 823.933594 361.660156 815.234375 361.660156 Z M 815.234375 366.675781 C 821.179688 366.675781 826 371.496094 826 377.441406 C 826 383.390625 821.179688 388.21875 815.234375 388.21875 C 809.285156 388.21875 804.46875 383.390625 804.46875 377.441406 C 804.46875 371.496094 809.285156 366.675781 815.234375 366.675781 " fill-opacity="1" fill-rule="nonzero"/><path fill="#329be2" d="M 934.539062 247.367188 C 934.539062 241.425781 939.363281 236.597656 945.304688 236.597656 C 951.253906 236.597656 956.070312 241.425781 956.070312 247.367188 C 956.070312 253.320312 951.253906 258.136719 945.304688 258.136719 C 939.363281 258.136719 934.539062 253.320312 934.539062 247.367188 " fill-opacity="1" fill-rule="nonzero"/><path fill="#000000" d="M 945.304688 231.582031 C 936.609375 231.582031 929.523438 238.667969 929.523438 247.367188 C 929.523438 256.070312 936.609375 263.15625 945.304688 263.15625 C 954.011719 263.15625 961.09375 256.070312 961.09375 247.367188 C 961.09375 238.667969 954.011719 231.582031 945.304688 231.582031 Z M 945.304688 236.597656 C 951.257812 236.597656 956.074219 241.421875 956.074219 247.367188 C 956.074219 253.320312 951.257812 258.136719 945.304688 258.136719 C 939.371094 258.136719 934.535156 253.320312 934.535156 247.367188 C 934.535156 241.421875 939.371094 236.597656 945.304688 236.597656 " fill-opacity="1" fill-rule="nonzero"/><path fill="#57b6ff" d="M 989.90625 302.734375 C 989.90625 296.789062 994.726562 291.964844 1000.667969 291.964844 C 1006.617188 291.964844 1011.429688 296.789062 1011.429688 302.734375 C 1011.429688 308.6875 1006.617188 313.5 1000.667969 313.5 C 994.726562 313.5 989.90625 308.6875 989.90625 302.734375 " fill-opacity="1" fill-rule="nonzero"/><path fill="#000000" d="M 1000.664062 286.949219 C 991.96875 286.949219 984.882812 294.03125 984.882812 302.738281 C 984.882812 311.433594 991.96875 318.515625 1000.664062 318.515625 C 1009.371094 318.515625 1016.449219 311.433594 1016.449219 302.738281 C 1016.449219 294.03125 1009.371094 286.949219 1000.664062 286.949219 Z M 1000.664062 291.960938 C 1006.617188 291.960938 1011.429688 296.785156 1011.429688 302.738281 C 1011.429688 308.683594 1006.617188 313.503906 1000.664062 313.503906 C 994.71875 313.503906 989.90625 308.683594 989.90625 302.738281 C 989.90625 296.785156 994.71875 291.960938 1000.664062 291.960938 " fill-opacity="1" fill-rule="nonzero"/><path fill="#57b6ff" d="M 1069.050781 223.589844 C 1069.050781 217.644531 1073.867188 212.820312 1079.8125 212.820312 C 1085.761719 212.820312 1090.574219 217.644531 1090.574219 223.589844 C 1090.574219 229.542969 1085.761719 234.355469 1079.8125 234.355469 C 1073.867188 234.355469 1069.050781 229.542969 1069.050781 223.589844 " fill-opacity="1" fill-rule="nonzero"/><path fill="#000000" d="M 1079.808594 207.804688 C 1071.113281 207.804688 1064.03125 214.886719 1064.03125 223.589844 C 1064.03125 232.292969 1071.113281 239.371094 1079.808594 239.371094 C 1088.519531 239.371094 1095.597656 232.292969 1095.597656 223.589844 C 1095.597656 214.886719 1088.519531 207.804688 1079.808594 207.804688 Z M 1079.808594 212.820312 C 1085.757812 212.820312 1090.578125 217.636719 1090.578125 223.589844 C 1090.578125 229.539062 1085.757812 234.359375 1079.808594 234.359375 C 1073.867188 234.359375 1069.042969 229.539062 1069.042969 223.589844 C 1069.042969 217.636719 1073.867188 212.820312 1079.808594 212.820312 " fill-opacity="1" fill-rule="nonzero"/><path fill="#57b6ff" d="M 539.8125 516.03125 C 539.8125 510.089844 544.636719 505.261719 550.585938 505.261719 C 556.53125 505.261719 561.351562 510.089844 561.351562 516.03125 C 561.351562 521.980469 556.53125 526.800781 550.585938 526.800781 C 544.636719 526.800781 539.8125 521.980469 539.8125 516.03125 " fill-opacity="1" fill-rule="nonzero"/><path fill="#000000" d="M 550.585938 500.25 C 541.878906 500.25 534.800781 507.328125 534.800781 516.03125 C 534.800781 524.738281 541.878906 531.816406 550.585938 531.816406 C 559.289062 531.816406 566.367188 524.738281 566.367188 516.03125 C 566.367188 507.328125 559.289062 500.25 550.585938 500.25 Z M 550.585938 505.261719 C 556.53125 505.261719 561.351562 510.089844 561.351562 516.03125 C 561.351562 521.980469 556.53125 526.800781 550.585938 526.800781 C 544.636719 526.800781 539.8125 521.980469 539.8125 516.03125 C 539.8125 510.089844 544.636719 505.261719 550.585938 505.261719 " fill-opacity="1" fill-rule="nonzero"/><path fill="#329be2" d="M 741.152344 315.765625 C 741.152344 309.820312 745.972656 304.996094 751.929688 304.996094 C 757.863281 304.996094 762.691406 309.820312 762.691406 315.765625 C 762.691406 321.71875 757.863281 326.535156 751.929688 326.535156 C 745.972656 326.535156 741.152344 321.71875 741.152344 315.765625 " fill-opacity="1" fill-rule="nonzero"/><path fill="#000000" d="M 751.925781 299.980469 C 743.214844 299.980469 736.136719 307.070312 736.136719 315.769531 C 736.136719 324.46875 743.214844 331.558594 751.925781 331.558594 C 760.625 331.558594 767.699219 324.46875 767.699219 315.769531 C 767.699219 307.070312 760.625 299.980469 751.925781 299.980469 Z M 751.925781 305 C 757.863281 305 762.695312 309.820312 762.695312 315.769531 C 762.695312 321.71875 757.863281 326.539062 751.925781 326.539062 C 745.972656 326.539062 741.15625 321.71875 741.15625 315.769531 C 741.15625 309.820312 745.972656 305 751.925781 305 " fill-opacity="1" fill-rule="nonzero"/><path fill="#57b6ff" d="M 366.226562 568.921875 C 366.226562 562.972656 371.050781 558.152344 376.996094 558.152344 C 382.945312 558.152344 387.761719 562.972656 387.761719 568.921875 C 387.761719 574.863281 382.945312 579.6875 376.996094 579.6875 C 371.050781 579.6875 366.226562 574.863281 366.226562 568.921875 " fill-opacity="1" fill-rule="nonzero"/><path fill="#000000" d="M 376.996094 553.132812 C 368.292969 553.132812 361.210938 560.210938 361.210938 568.921875 C 361.210938 577.621094 368.292969 584.699219 376.996094 584.699219 C 385.699219 584.699219 392.78125 577.621094 392.78125 568.921875 C 392.78125 560.210938 385.699219 553.132812 376.996094 553.132812 Z M 376.996094 558.152344 C 382.945312 558.152344 387.761719 562.972656 387.761719 568.921875 C 387.761719 574.863281 382.945312 579.6875 376.996094 579.6875 C 371.050781 579.6875 366.226562 574.863281 366.226562 568.921875 C 366.226562 562.972656 371.050781 558.152344 376.996094 558.152344 " fill-opacity="1" fill-rule="nonzero"/><path fill="#ffffff" d="M 155.328125 1304.65625 L 159.617188 1345.5 L 187.234375 1348.734375 L 187.234375 1300.308594 L 155.328125 1304.65625 " fill-opacity="1" fill-rule="nonzero"/><path fill="#000000" d="M 161.898438 1343.238281 L 184.722656 1345.917969 L 184.722656 1303.179688 L 158.078125 1306.808594 Z M 187.234375 1351.242188 C 187.136719 1351.242188 187.039062 1351.242188 186.941406 1351.226562 L 159.324219 1347.992188 C 158.15625 1347.855469 157.242188 1346.929688 157.121094 1345.761719 L 152.835938 1304.914062 C 152.691406 1303.566406 153.648438 1302.355469 154.988281 1302.171875 L 186.894531 1297.824219 C 187.617188 1297.726562 188.335938 1297.945312 188.882812 1298.421875 C 189.425781 1298.890625 189.742188 1299.582031 189.742188 1300.308594 L 189.742188 1348.734375 C 189.742188 1349.453125 189.433594 1350.136719 188.898438 1350.613281 C 188.4375 1351.023438 187.84375 1351.242188 187.234375 1351.242188 " fill-opacity="1" fill-rule="nonzero"/><path fill="#329be2" d="M 191.582031 1419.839844 C 180.074219 1421.457031 161.199219 1422.882812 139.042969 1419.820312 C 131.78125 1418.8125 126.96875 1411.769531 128.71875 1404.65625 C 133.597656 1384.824219 142.003906 1347.210938 156.429688 1329.777344 L 160.015625 1339.230469 L 164.964844 1330.332031 C 165.644531 1329.113281 166.859375 1328.289062 168.246094 1328.113281 L 179.085938 1326.742188 C 181.351562 1326.453125 183.457031 1327.953125 183.925781 1330.183594 L 185.652344 1338.390625 L 189.433594 1327.621094 L 202.042969 1406.019531 C 202.925781 1412.71875 198.273438 1418.902344 191.582031 1419.839844 " fill-opacity="1" fill-rule="nonzero"/><path fill="#000000" d="M 155.699219 1334.925781 C 144.160156 1351.804688 136.753906 1382.253906 132.199219 1400.964844 L 131.15625 1405.253906 C 130.484375 1407.980469 130.984375 1410.769531 132.5625 1413.097656 C 134.128906 1415.410156 136.613281 1416.949219 139.386719 1417.332031 C 161.058594 1420.335938 179.542969 1419 191.234375 1417.359375 C 196.527344 1416.613281 200.257812 1411.671875 199.558594 1406.34375 L 188.523438 1337.773438 L 188.019531 1339.214844 C 187.644531 1340.277344 186.589844 1340.957031 185.488281 1340.890625 C 184.367188 1340.816406 183.429688 1340.003906 183.199219 1338.90625 L 181.472656 1330.707031 C 181.273438 1329.75 180.355469 1329.105469 179.402344 1329.230469 L 168.558594 1330.597656 C 167.972656 1330.675781 167.445312 1331.03125 167.15625 1331.550781 L 162.207031 1340.453125 C 161.734375 1341.308594 160.808594 1341.800781 159.832031 1341.734375 C 158.859375 1341.664062 158.015625 1341.035156 157.667969 1340.125 Z M 165.472656 1424.140625 C 157.359375 1424.140625 148.335938 1423.640625 138.699219 1422.304688 C 134.523438 1421.722656 130.773438 1419.394531 128.410156 1415.914062 C 126.058594 1412.445312 125.285156 1408.128906 126.285156 1404.058594 L 127.328125 1399.78125 C 132.324219 1379.246094 140.683594 1344.867188 154.5 1328.179688 C 155.070312 1327.492188 155.960938 1327.160156 156.84375 1327.300781 C 157.722656 1327.457031 158.460938 1328.054688 158.777344 1328.894531 L 160.445312 1333.296875 L 162.773438 1329.113281 C 163.835938 1327.203125 165.761719 1325.902344 167.929688 1325.628906 L 178.773438 1324.25 C 182.109375 1323.824219 185.296875 1325.941406 186.246094 1329.128906 L 187.066406 1326.785156 C 187.445312 1325.703125 188.523438 1325.023438 189.65625 1325.121094 C 190.796875 1325.226562 191.726562 1326.089844 191.90625 1327.21875 L 204.523438 1405.617188 C 205.589844 1413.734375 199.9375 1421.199219 191.933594 1422.328125 C 185.125 1423.285156 176.078125 1424.140625 165.472656 1424.140625 " fill-opacity="1" fill-rule="nonzero"/><path fill="#000000" d="M 159.582031 1410.988281 C 152.15625 1410.988281 144.121094 1410.339844 136.113281 1408.511719 C 134.761719 1408.203125 133.914062 1406.859375 134.222656 1405.511719 C 134.53125 1404.15625 135.878906 1403.3125 137.226562 1403.617188 C 164.035156 1409.726562 192.160156 1401.875 192.441406 1401.792969 C 193.765625 1401.414062 195.160156 1402.1875 195.539062 1403.511719 C 195.917969 1404.84375 195.148438 1406.234375 193.816406 1406.613281 C 192.960938 1406.859375 178.191406 1410.988281 159.582031 1410.988281 " fill-opacity="1" fill-rule="nonzero"/><path fill="#000000" d="M 152.996094 1380.621094 C 151.648438 1380.621094 150.535156 1379.558594 150.488281 1378.199219 C 150.445312 1376.8125 151.527344 1375.652344 152.914062 1375.609375 L 178.800781 1374.75 C 180.171875 1374.714844 181.34375 1375.796875 181.390625 1377.175781 C 181.4375 1378.5625 180.351562 1379.722656 178.964844 1379.765625 L 153.082031 1380.621094 C 153.050781 1380.621094 153.023438 1380.621094 152.996094 1380.621094 " fill-opacity="1" fill-rule="nonzero"/><path fill="#ffffff" d="M 284.683594 1282.910156 L 288.824219 1342.511719 L 322.054688 1342.511719 L 323.597656 1282.910156 L 284.683594 1282.910156 " fill-opacity="1" fill-rule="nonzero"/><path fill="#000000" d="M 291.160156 1340.003906 L 319.609375 1340.003906 L 321.027344 1285.414062 L 287.371094 1285.414062 Z M 322.054688 1345.023438 L 288.824219 1345.023438 C 287.503906 1345.023438 286.410156 1343.996094 286.320312 1342.6875 L 282.179688 1283.082031 C 282.132812 1282.382812 282.375 1281.703125 282.847656 1281.195312 C 283.324219 1280.6875 283.988281 1280.398438 284.683594 1280.398438 L 323.597656 1280.398438 C 324.277344 1280.398438 324.921875 1280.671875 325.394531 1281.15625 C 325.867188 1281.640625 326.125 1282.292969 326.105469 1282.976562 L 324.558594 1342.578125 C 324.523438 1343.9375 323.414062 1345.023438 322.054688 1345.023438 " fill-opacity="1" fill-rule="nonzero"/><path fill="#329be2" d="M 280.140625 1376.160156 C 280.054688 1381.796875 283.910156 1386.746094 289.402344 1388.03125 C 308.507812 1392.476562 351.539062 1402.375 363.820312 1404.203125 C 379.75 1406.574219 399.332031 1401.691406 407.75 1392.371094 C 416.167969 1383.054688 388.898438 1360.804688 375.957031 1352.703125 C 356.734375 1340.679688 338.261719 1316.914062 330.515625 1315.84375 C 322.773438 1314.765625 308.3125 1337.234375 308.3125 1337.234375 L 284.683594 1327.308594 C 284.683594 1327.308594 280.5625 1347.566406 280.140625 1376.160156 " fill-opacity="1" fill-rule="nonzero"/><path fill="#000000" d="M 282.648438 1376.195312 C 282.582031 1380.632812 285.660156 1384.582031 289.96875 1385.585938 C 308.203125 1389.832031 351.9375 1399.898438 364.1875 1401.722656 C 379.613281 1404.019531 398.320312 1399.070312 405.890625 1390.695312 C 406.390625 1390.132812 407.027344 1389.1875 406.765625 1387.324219 C 405.53125 1378.472656 387.308594 1362.761719 374.628906 1354.835938 C 364.828125 1348.703125 355.5 1339.851562 347.269531 1332.039062 C 340.378906 1325.507812 333.257812 1318.753906 330.171875 1318.324219 C 326.371094 1317.808594 316.964844 1328.4375 310.425781 1338.59375 C 309.765625 1339.617188 308.464844 1340.019531 307.34375 1339.546875 L 286.59375 1330.832031 C 285.46875 1337.480469 282.96875 1354.484375 282.648438 1376.195312 Z M 372.113281 1407.308594 C 369.183594 1407.308594 366.277344 1407.101562 363.449219 1406.6875 C 351.015625 1404.828125 307.125 1394.730469 288.832031 1390.46875 C 282.242188 1388.9375 277.53125 1382.90625 277.628906 1376.125 C 278.054688 1347.621094 282.183594 1327.015625 282.222656 1326.808594 C 282.375 1326.074219 282.847656 1325.445312 283.511719 1325.097656 C 284.175781 1324.742188 284.960938 1324.710938 285.65625 1325 L 307.363281 1334.117188 C 311.972656 1327.226562 322.984375 1312.273438 330.859375 1313.359375 C 335.324219 1313.972656 341.027344 1319.207031 350.71875 1328.402344 C 358.777344 1336.050781 367.914062 1344.71875 377.285156 1350.585938 C 385.648438 1355.8125 409.925781 1373.660156 411.734375 1386.625 C 412.136719 1389.507812 411.402344 1392.078125 409.613281 1394.054688 C 402.335938 1402.109375 386.984375 1407.308594 372.113281 1407.308594 " fill-opacity="1" fill-rule="nonzero"/><path fill="#000000" d="M 371.832031 1396.34375 C 336.992188 1396.34375 290.5 1377.5625 287.871094 1376.488281 C 286.589844 1375.964844 285.976562 1374.5 286.5 1373.214844 C 287.027344 1371.929688 288.488281 1371.320312 289.769531 1371.839844 C 290.609375 1372.1875 374.21875 1405.976562 398.554688 1384.003906 C 399.582031 1383.070312 401.167969 1383.15625 402.097656 1384.179688 C 403.027344 1385.207031 402.945312 1386.792969 401.917969 1387.726562 C 394.960938 1394 384.121094 1396.34375 371.832031 1396.34375 " fill-opacity="1" fill-rule="nonzero"/><path fill="#000000" d="M 334.988281 1360.269531 C 334.300781 1360.269531 333.621094 1359.988281 333.128906 1359.4375 C 332.199219 1358.410156 332.28125 1356.820312 333.308594 1355.894531 L 350.210938 1340.648438 C 351.242188 1339.722656 352.824219 1339.804688 353.753906 1340.832031 C 354.679688 1341.859375 354.597656 1343.445312 353.570312 1344.375 L 336.667969 1359.625 C 336.1875 1360.058594 335.585938 1360.269531 334.988281 1360.269531 " fill-opacity="1" fill-rule="nonzero"/><path fill="#000000" d="M 145.90625 894.339844 C 145.90625 894.339844 135.609375 1080.671875 130.21875 1144.988281 C 124.828125 1209.316406 142.820312 1312.707031 142.820312 1312.707031 L 194.113281 1310.015625 C 194.113281 1310.015625 197.628906 1184.296875 201.441406 1149.390625 C 201.441406 1149.390625 223.105469 1102.066406 229.53125 1059.851562 C 235.953125 1017.640625 257.824219 950.972656 257.824219 950.972656 C 257.824219 950.972656 275.589844 1283.742188 277.300781 1309.886719 C 277.300781 1309.886719 317.527344 1311.675781 331.945312 1302.601562 C 331.945312 1302.601562 357.5 1181.265625 353.832031 1115.25 C 350.160156 1049.226562 354.191406 885.207031 354.191406 885.207031 L 145.90625 894.339844 " fill-opacity="1" fill-rule="nonzero"/><path fill="#ffffff" d="M 191.996094 1151.882812 L 176.316406 1151.882812 C 174.929688 1151.882812 173.808594 1150.761719 173.808594 1149.378906 C 173.808594 1147.988281 174.929688 1146.867188 176.316406 1146.867188 L 191.996094 1146.867188 C 193.382812 1146.867188 194.503906 1147.988281 194.503906 1149.378906 C 194.503906 1150.761719 193.382812 1151.882812 191.996094 1151.882812 " fill-opacity="1" fill-rule="nonzero"/><path fill="#ffffff" d="M 303.6875 1248.667969 C 303.671875 1248.667969 303.65625 1248.667969 303.640625 1248.667969 C 302.253906 1248.640625 301.152344 1247.492188 301.179688 1246.113281 C 301.746094 1215.105469 335.636719 1159.742188 337.078125 1157.402344 C 337.804688 1156.21875 339.351562 1155.855469 340.53125 1156.578125 C 341.710938 1157.300781 342.078125 1158.851562 341.351562 1160.03125 C 341.003906 1160.589844 306.734375 1216.566406 306.195312 1246.207031 C 306.167969 1247.570312 305.050781 1248.667969 303.6875 1248.667969 " fill-opacity="1" fill-rule="nonzero"/><path fill="#ffffff" d="M 370.425781 596.332031 C 374.160156 596.035156 392.492188 633.578125 449.851562 632.003906 C 507.210938 630.429688 553.230469 566.246094 553.230469 566.246094 C 553.230469 566.246094 573.042969 532.839844 588.070312 520.765625 C 603.105469 508.6875 605.460938 507.09375 605.460938 507.09375 C 605.460938 507.09375 610.179688 513.371094 605.460938 520.765625 C 600.75 528.15625 587.738281 541.980469 587.738281 541.980469 C 587.738281 541.980469 602.074219 549.855469 595.609375 566.246094 C 588.175781 585.101562 567.21875 583.585938 567.21875 583.585938 C 567.21875 583.585938 524.691406 771.878906 348.925781 682.398438 L 370.425781 596.332031 " fill-opacity="1" fill-rule="nonzero"/><path fill="#000000" d="M 369.765625 598.683594 Z M 351.84375 681.066406 C 402.859375 706.613281 447.296875 710.847656 483.957031 693.636719 C 545.695312 664.660156 564.589844 583.84375 564.773438 583.03125 C 565.046875 581.820312 566.167969 580.996094 567.398438 581.082031 C 568.171875 581.128906 586.625 582.191406 593.277344 565.324219 C 598.824219 551.25 587.035156 544.457031 586.527344 544.175781 C 585.851562 543.796875 585.378906 543.121094 585.265625 542.363281 C 585.144531 541.601562 585.378906 540.820312 585.914062 540.261719 C 586.039062 540.125 598.816406 526.519531 603.347656 519.417969 C 605.535156 516 605.214844 512.902344 604.5625 510.910156 C 602.273438 512.65625 597.878906 516.105469 589.648438 522.722656 C 575.140625 534.371094 555.585938 567.191406 555.390625 567.527344 C 555.351562 567.585938 555.3125 567.644531 555.269531 567.707031 C 553.359375 570.371094 507.859375 632.921875 449.921875 634.511719 C 403.246094 635.792969 382.035156 612.109375 372.96875 602 C 372.613281 601.605469 372.25 601.199219 371.894531 600.8125 Z M 436.089844 709.03125 C 409.242188 709.03125 379.722656 700.890625 347.785156 684.636719 C 346.746094 684.105469 346.210938 682.925781 346.492188 681.792969 L 367.992188 595.726562 C 368.253906 594.679688 369.15625 593.914062 370.230469 593.832031 C 372.21875 593.664062 373.636719 595.234375 376.703125 598.648438 C 385.304688 608.242188 405.476562 630.714844 449.78125 629.496094 C 504.296875 628 549.230469 567.464844 551.132812 564.867188 C 552.570312 562.449219 571.558594 530.816406 586.5 518.8125 C 601.449219 506.808594 603.964844 505.078125 604.0625 505.019531 C 605.167969 504.269531 606.671875 504.519531 607.472656 505.589844 C 607.707031 505.90625 613.164062 513.355469 607.578125 522.117188 C 603.878906 527.921875 595.445312 537.316406 591.5625 541.539062 C 596.917969 545.789062 602.863281 554.6875 597.945312 567.164062 C 591.382812 583.789062 575.039062 585.886719 569.171875 586.09375 C 565.804688 598.878906 544.53125 670.746094 486.089844 698.179688 C 470.671875 705.417969 453.972656 709.03125 436.089844 709.03125 " fill-opacity="1" fill-rule="nonzero"/><path fill="#329be2" d="M 86.136719 682.398438 C 86.136719 682.398438 103.351562 571.300781 164.164062 543.964844 C 224.976562 516.628906 307.25 520.425781 329.9375 534.074219 C 352.625 547.730469 411.757812 609.449219 411.757812 609.449219 L 359.503906 682.398438 C 359.503906 682.398438 371.445312 878.773438 362.003906 930.617188 C 362.003906 930.617188 303.875 937.390625 279.222656 927.683594 C 254.566406 917.976562 173.5 904.371094 134.75 922.175781 L 141.792969 673.554688 L 86.136719 682.398438 " fill-opacity="1" fill-rule="nonzero"/><path fill="#000000" d="M 187.410156 911.003906 C 224.332031 911.003906 264.164062 919.0625 280.140625 925.347656 C 301.492188 933.761719 349.777344 929.359375 359.851562 928.320312 C 368.546875 874.695312 357.121094 684.492188 357.003906 682.550781 C 356.96875 681.976562 357.128906 681.410156 357.46875 680.9375 L 408.503906 609.6875 C 399.3125 600.183594 348.835938 548.375 328.644531 536.226562 C 307.445312 523.472656 225.769531 519.015625 165.191406 546.246094 C 112.226562 570.058594 92.726562 660.597656 89.21875 679.367188 L 141.398438 671.078125 C 142.136719 670.957031 142.886719 671.175781 143.449219 671.667969 C 144.011719 672.160156 144.320312 672.882812 144.300781 673.625 L 137.367188 918.347656 C 151.050781 913.035156 168.863281 911.003906 187.410156 911.003906 Z M 321.03125 935.453125 C 305.476562 935.453125 288.984375 934.222656 278.300781 930.015625 C 252.871094 920.007812 172.664062 907.519531 135.796875 924.453125 C 135.011719 924.820312 134.089844 924.746094 133.367188 924.265625 C 132.644531 923.789062 132.21875 922.972656 132.242188 922.105469 L 139.199219 676.503906 L 86.527344 684.878906 C 85.734375 685.007812 84.933594 684.742188 84.363281 684.183594 C 83.800781 683.613281 83.535156 682.808594 83.65625 682.011719 C 84.367188 677.429688 101.785156 569.253906 163.136719 541.675781 C 223.324219 514.621094 306.601562 517.109375 331.230469 531.929688 C 353.945312 545.59375 411.148438 605.183594 413.570312 607.714844 C 414.40625 608.585938 414.5 609.929688 413.800781 610.914062 L 362.0625 683.132812 C 363.03125 699.300781 373.636719 880.757812 364.472656 931.066406 C 364.273438 932.148438 363.390625 932.980469 362.296875 933.109375 C 360.921875 933.269531 341.808594 935.453125 321.03125 935.453125 " fill-opacity="1" fill-rule="nonzero"/><path fill="#000000" d="M 188.167969 873.445312 C 186.96875 873.445312 185.914062 872.589844 185.699219 871.375 C 185.457031 870.011719 186.371094 868.707031 187.730469 868.464844 C 279.585938 852.234375 306.429688 788.710938 306.6875 788.074219 C 307.210938 786.785156 308.675781 786.171875 309.953125 786.6875 C 311.238281 787.210938 311.859375 788.671875 311.335938 789.953125 C 311.066406 790.621094 283.324219 856.664062 188.605469 873.40625 C 188.457031 873.429688 188.3125 873.445312 188.167969 873.445312 " fill-opacity="1" fill-rule="nonzero"/><path fill="#000000" d="M 355.105469 760.054688 L 236.761719 760.054688 L 273.828125 627.863281 L 392.171875 627.863281 L 355.105469 760.054688 " fill-opacity="1" fill-rule="nonzero"/><path fill="#ffffff" d="M 96.570312 682.824219 L 156.460938 656.054688 C 156.460938 656.054688 148.027344 757.535156 269.199219 710.675781 C 269.199219 710.675781 264.730469 697.632812 265.363281 682.398438 C 265.992188 667.167969 275.109375 681.910156 276.382812 694.292969 C 277.65625 706.667969 306.109375 701.640625 323.203125 696.761719 C 340.300781 691.886719 362.738281 695.078125 323.203125 716.890625 C 283.667969 738.695312 275.003906 728.96875 275.003906 728.96875 C 275.003906 728.96875 224.511719 799.617188 161.691406 784.613281 C 84.421875 766.152344 96.570312 682.824219 96.570312 682.824219 " fill-opacity="1" fill-rule="nonzero"/><path fill="#000000" d="M 98.894531 684.539062 C 98.386719 689.464844 97.117188 707.179688 102.613281 726.261719 C 111.160156 755.941406 131.234375 774.757812 162.273438 782.167969 C 222.695312 796.605469 272.46875 728.207031 272.964844 727.507812 C 273.40625 726.894531 274.109375 726.507812 274.871094 726.460938 C 275.636719 726.421875 276.367188 726.734375 276.875 727.300781 C 276.890625 727.300781 285.730469 734.691406 321.992188 714.691406 C 343.300781 702.9375 342.71875 698.683594 342.703125 698.648438 C 342.175781 697.359375 334.3125 696.203125 323.890625 699.179688 C 315.773438 701.492188 288.488281 708.5 278.105469 701.476562 C 275.640625 699.808594 274.183594 697.410156 273.886719 694.539062 C 273.183594 687.71875 270.160156 681.152344 268.289062 679.019531 C 268.121094 679.679688 267.941406 680.761719 267.867188 682.507812 C 267.265625 697.046875 271.527344 709.734375 271.574219 709.863281 C 272.003906 711.140625 271.359375 712.523438 270.101562 713.011719 C 228.371094 729.152344 197.027344 729.722656 176.941406 714.691406 C 155.71875 698.804688 153.753906 670.601562 153.8125 659.992188 Z M 179.210938 789.1875 C 173.3125 789.1875 167.269531 788.523438 161.109375 787.050781 C 120.015625 777.226562 103.96875 749.242188 97.742188 727.484375 C 91.050781 704.097656 93.960938 683.339844 94.089844 682.46875 C 94.210938 681.613281 94.761719 680.894531 95.546875 680.535156 L 155.4375 653.769531 C 156.246094 653.402344 157.1875 653.496094 157.910156 654.011719 C 158.632812 654.519531 159.035156 655.375 158.960938 656.261719 C 158.929688 656.625 156.25 692.972656 179.96875 710.6875 C 198.238281 724.339844 227.214844 723.824219 266.117188 709.167969 C 264.84375 704.664062 262.363281 694.191406 262.855469 682.292969 C 262.945312 680.136719 263.21875 673.539062 267.714844 673.402344 C 267.75 673.402344 267.792969 673.402344 267.832031 673.402344 C 273.6875 673.402344 278.128906 686.78125 278.875 694.035156 C 279.023438 695.433594 279.667969 696.480469 280.917969 697.324219 C 287.742188 701.945312 307.589844 698.609375 322.515625 694.351562 C 331.089844 691.902344 344.777344 690.523438 347.339844 696.738281 C 349.59375 702.203125 342.523438 709.097656 324.414062 719.085938 C 293.703125 736.027344 280.5625 734.472656 275.625 732.296875 C 267.824219 742.339844 228.714844 789.1875 179.210938 789.1875 " fill-opacity="1" fill-rule="nonzero"/><path fill="#000000" d="M 256.433594 493.316406 C 251.261719 498.058594 241.148438 503.84375 233.230469 499.859375 C 227.335938 496.886719 224.046875 489.199219 224.253906 480.394531 C 221.523438 480.617188 217.945312 480.425781 215.390625 478.167969 C 211.460938 474.695312 212.199219 468.296875 212.347656 464.105469 C 213.058594 444.710938 201.796875 441.742188 204.554688 428.585938 C 206.71875 418.242188 214.839844 412.085938 216.359375 410.933594 C 224.027344 405.117188 229.222656 407 242.113281 403.621094 C 263.804688 397.9375 264.496094 388.585938 278.789062 388.539062 C 279.613281 388.539062 299.0625 388.757812 305.664062 402.195312 C 311.03125 413.121094 304.761719 426.40625 298.277344 433.378906 C 289.882812 442.414062 283.855469 437.957031 275.425781 445.527344 C 260.636719 458.839844 271.804688 479.257812 256.433594 493.316406 " fill-opacity="1" fill-rule="nonzero"/><path fill="#ffffff" d="M 299.726562 458.734375 L 298.875 457.992188 C 294.582031 454.292969 290.109375 449.992188 288.972656 444.445312 C 284.128906 420.847656 262.511719 412.28125 261.515625 433.949219 C 261.261719 439.417969 241.296875 439.136719 243.664062 444.878906 C 249.839844 459.839844 249.976562 455.808594 241.257812 461.324219 C 240.269531 461.363281 239.289062 461.582031 238.367188 462.015625 C 233.894531 464.101562 232.308594 470.164062 234.828125 475.570312 C 236.359375 478.847656 239.050781 481.113281 241.929688 481.929688 L 241.929688 505.574219 C 241.929688 514.429688 236.566406 522.414062 228.363281 525.773438 L 220.382812 529.03125 C 220.382812 529.03125 257.605469 553.328125 295.386719 526.652344 L 290.34375 524.394531 C 281.464844 520.410156 275.636719 511.703125 275.328125 501.984375 L 275.289062 497.355469 C 277.828125 497.585938 280.289062 497.410156 282.5625 496.75 C 293.128906 493.675781 296.636719 481.496094 294.839844 466.363281 L 299.144531 464.050781 C 301.148438 462.976562 301.453125 460.21875 299.726562 458.734375 " fill-opacity="1" fill-rule="nonzero"/><path fill="#000000" d="M 226.160156 529.382812 C 236.355469 534.453125 262.628906 544.136719 290.203125 527.085938 L 289.316406 526.6875 C 279.632812 522.339844 273.152344 512.671875 272.824219 502.066406 L 272.777344 497.382812 C 272.773438 496.679688 273.066406 495.996094 273.585938 495.519531 C 274.105469 495.042969 274.804688 494.800781 275.507812 494.863281 C 277.835938 495.078125 279.96875 494.894531 281.859375 494.347656 C 293.878906 490.851562 293.199219 473.828125 292.347656 466.664062 C 292.226562 465.640625 292.746094 464.644531 293.652344 464.160156 L 297.953125 461.84375 C 298.253906 461.6875 298.324219 461.421875 298.339844 461.273438 C 298.355469 461.132812 298.347656 460.851562 298.089844 460.632812 L 297.234375 459.894531 C 292.738281 456.019531 287.824219 451.351562 286.515625 444.953125 C 283.617188 430.851562 274.792969 423.617188 269.726562 424.015625 C 266.382812 424.28125 264.300781 427.941406 264.019531 434.074219 C 263.8125 438.5 258.261719 440.054688 252.886719 441.558594 C 250.648438 442.191406 246.988281 443.214844 246.050781 444.085938 C 246.917969 446.179688 247.652344 447.878906 248.261719 449.277344 C 251.160156 455.957031 252.140625 458.207031 246.269531 461.34375 C 245.292969 461.867188 244.070312 462.515625 242.601562 463.449219 C 242.226562 463.683594 241.800781 463.816406 241.363281 463.839844 C 240.660156 463.863281 240.011719 464.019531 239.425781 464.292969 C 237.953125 464.980469 236.878906 466.363281 236.402344 468.1875 C 235.878906 470.179688 236.128906 472.433594 237.101562 474.515625 C 238.261719 476.996094 240.316406 478.871094 242.617188 479.519531 C 243.691406 479.835938 244.4375 480.816406 244.4375 481.9375 L 244.4375 505.578125 C 244.4375 515.503906 238.5 524.339844 229.316406 528.097656 Z M 257.207031 541.585938 C 235.398438 541.585938 219.257812 531.300781 219.007812 531.136719 C 218.226562 530.628906 217.796875 529.730469 217.886719 528.796875 C 217.972656 527.867188 218.570312 527.070312 219.433594 526.71875 L 227.417969 523.449219 C 234.707031 520.46875 239.417969 513.453125 239.417969 505.578125 L 239.417969 483.671875 C 236.492188 482.3125 234.046875 479.835938 232.554688 476.632812 C 231.09375 473.5 230.734375 470.042969 231.550781 466.921875 C 232.40625 463.621094 234.453125 461.078125 237.304688 459.75 C 238.289062 459.285156 239.34375 459 240.453125 458.878906 C 241.835938 458.027344 242.96875 457.417969 243.90625 456.917969 C 244.511719 456.597656 245.179688 456.238281 245.535156 456.003906 C 245.355469 455.175781 244.527344 453.273438 243.660156 451.277344 C 243.019531 449.808594 242.25 448.023438 241.34375 445.835938 C 240.804688 444.539062 240.832031 443.214844 241.410156 442.027344 C 242.800781 439.179688 246.847656 438.046875 251.535156 436.730469 C 253.964844 436.050781 258.492188 434.777344 259.035156 433.734375 C 259.414062 425.03125 263.273438 419.488281 269.335938 419.015625 C 277.375 418.382812 288.101562 427.738281 291.429688 443.941406 C 292.421875 448.792969 296.636719 452.757812 300.511719 456.09375 L 301.367188 456.832031 C 302.800781 458.074219 303.53125 459.9375 303.328125 461.820312 C 303.117188 463.707031 302 465.371094 300.328125 466.265625 L 297.511719 467.78125 C 299.105469 484.660156 293.960938 496.054688 283.261719 499.164062 C 281.5625 499.660156 279.738281 499.925781 277.816406 499.964844 L 277.835938 501.964844 C 278.109375 510.617188 283.421875 518.546875 291.367188 522.105469 L 296.410156 524.371094 C 297.234375 524.738281 297.796875 525.519531 297.882812 526.414062 C 297.96875 527.3125 297.566406 528.1875 296.832031 528.707031 C 283.046875 538.441406 269.257812 541.585938 257.207031 541.585938 " fill-opacity="1" fill-rule="nonzero"/><path fill="#000000" d="M 275.289062 499.871094 C 275.164062 499.871094 275.035156 499.859375 274.90625 499.84375 C 259.222656 497.441406 252.15625 485.429688 251.863281 484.921875 C 251.171875 483.722656 251.589844 482.183594 252.785156 481.496094 C 253.984375 480.804688 255.511719 481.214844 256.210938 482.414062 C 256.273438 482.527344 262.445312 492.855469 275.667969 494.886719 C 277.035156 495.089844 277.976562 496.375 277.765625 497.742188 C 277.578125 498.988281 276.507812 499.871094 275.289062 499.871094 " fill-opacity="1" fill-rule="nonzero"/><path fill="#000000" d="M 486.160156 1180.316406 L 1225.425781 1181.933594 C 1231.890625 1181.933594 1237.351562 1177.121094 1238.171875 1170.695312 L 1297.058594 710.097656 C 1298.488281 698.890625 1290.324219 688.300781 1279.0625 688.300781 L 549.355469 688.96875 L 486.160156 1180.316406 " fill-opacity="1" fill-rule="nonzero"/><path fill="#ffffff" d="M 474.03125 1179.585938 L 1198.527344 1179.585938 C 1204.996094 1179.585938 1210.445312 1174.78125 1211.269531 1168.359375 L 1269.796875 713.679688 C 1271.410156 701.054688 1261.601562 689.855469 1248.894531 689.855469 L 533.742188 689.855469 C 527.285156 689.855469 521.832031 694.671875 521.003906 701.089844 L 461.292969 1165.0625 C 460.304688 1172.761719 466.285156 1179.585938 474.03125 1179.585938 " fill-opacity="1" fill-rule="nonzero"/><path fill="#000000" d="M 533.746094 692.367188 C 528.566406 692.367188 524.15625 696.253906 523.496094 701.40625 L 463.78125 1165.378906 C 463.402344 1168.34375 464.3125 1171.328125 466.28125 1173.570312 C 468.246094 1175.800781 471.070312 1177.082031 474.03125 1177.082031 L 1198.53125 1177.082031 C 1203.71875 1177.082031 1208.121094 1173.191406 1208.789062 1168.03125 L 1267.296875 713.355469 C 1267.988281 708.035156 1266.351562 702.6875 1262.8125 698.660156 C 1259.296875 694.660156 1254.226562 692.367188 1248.898438 692.367188 Z M 1198.53125 1182.089844 L 474.03125 1182.089844 C 469.628906 1182.089844 465.429688 1180.195312 462.515625 1176.882812 C 459.59375 1173.558594 458.242188 1169.132812 458.808594 1164.734375 L 518.519531 700.765625 C 519.503906 693.121094 526.050781 687.351562 533.746094 687.351562 L 1248.898438 687.351562 C 1255.667969 687.351562 1262.109375 690.269531 1266.578125 695.347656 C 1271.070312 700.445312 1273.144531 707.253906 1272.277344 713.996094 L 1213.761719 1168.679688 C 1212.777344 1176.324219 1206.226562 1182.089844 1198.53125 1182.089844 " fill-opacity="1" fill-rule="nonzero"/><path fill="#c4e5ff" d="M 973.652344 796.800781 L 1215.902344 796.800781 C 1216.511719 796.800781 1217.035156 796.355469 1217.136719 795.753906 L 1219.476562 781.683594 C 1219.605469 780.933594 1219.023438 780.234375 1218.25 780.234375 L 975.992188 780.234375 C 975.394531 780.234375 974.871094 780.675781 974.765625 781.273438 L 972.425781 795.34375 C 972.300781 796.105469 972.878906 796.800781 973.652344 796.800781 " fill-opacity="1" fill-rule="nonzero"/><path fill="#329be2" d="M 939.6875 796.796875 L 961.332031 796.796875 C 962.074219 796.796875 962.703125 796.257812 962.824219 795.523438 L 965.082031 782.003906 C 965.234375 781.078125 964.523438 780.238281 963.582031 780.238281 L 941.9375 780.238281 C 941.195312 780.238281 940.570312 780.773438 940.4375 781.503906 L 938.1875 795.023438 C 938.039062 795.957031 938.746094 796.796875 939.6875 796.796875 " fill-opacity="1" fill-rule="nonzero"/><path fill="#329be2" d="M 587.320312 841.125 L 608.964844 841.125 C 609.703125 841.125 610.339844 840.585938 610.460938 839.851562 L 612.710938 826.332031 C 612.871094 825.40625 612.15625 824.5625 611.21875 824.5625 L 589.570312 824.5625 C 588.828125 824.5625 588.191406 825.101562 588.070312 825.832031 L 585.820312 839.351562 C 585.667969 840.28125 586.378906 841.125 587.320312 841.125 " fill-opacity="1" fill-rule="nonzero"/><path fill="#329be2" d="M 529.28125 888.125 L 550.925781 888.125 C 551.667969 888.125 552.296875 887.585938 552.421875 886.851562 L 554.675781 873.332031 C 554.828125 872.40625 554.117188 871.566406 553.175781 871.566406 L 531.535156 871.566406 C 530.792969 871.566406 530.15625 872.09375 530.035156 872.832031 L 527.785156 886.351562 C 527.628906 887.277344 528.34375 888.125 529.28125 888.125 " fill-opacity="1" fill-rule="nonzero"/><path fill="#c4e5ff" d="M 621.414062 841.410156 L 1209 841.410156 C 1209.613281 841.410156 1210.132812 840.972656 1210.226562 840.367188 L 1212.582031 826.296875 C 1212.699219 825.539062 1212.121094 824.847656 1211.351562 824.847656 L 623.757812 824.847656 C 623.152344 824.847656 622.628906 825.292969 622.527344 825.890625 L 620.1875 839.957031 C 620.058594 840.714844 620.644531 841.410156 621.414062 841.410156 " fill-opacity="1" fill-rule="nonzero"/><path fill="#c4e5ff" d="M 565.320312 888.324219 L 1201.640625 888.324219 C 1202.25 888.324219 1202.769531 887.886719 1202.867188 887.289062 L 1205.21875 873.21875 C 1205.335938 872.457031 1204.75 871.765625 1203.992188 871.765625 L 567.664062 871.765625 C 567.054688 871.765625 566.535156 872.203125 566.4375 872.8125 L 564.089844 886.875 C 563.964844 887.632812 564.550781 888.324219 565.320312 888.324219 " fill-opacity="1" fill-rule="nonzero"/><path fill="#000000" d="M 1060.054688 1137.390625 L 1031.777344 1137.390625 C 1027.5625 1137.390625 1023.617188 1135.324219 1021.214844 1131.851562 L 1007.550781 1112.109375 C 1006.101562 1110.035156 1003.828125 1108.804688 1001.289062 1108.742188 C 998.742188 1108.683594 996.429688 1109.804688 994.882812 1111.8125 C 992.285156 1115.207031 988.191406 1117.089844 983.917969 1116.839844 C 979.652344 1116.582031 975.804688 1114.230469 973.621094 1110.554688 L 949.945312 1070.550781 C 948.554688 1068.191406 946.089844 1066.761719 943.355469 1066.707031 C 940.691406 1066.664062 938.105469 1068.003906 936.621094 1070.308594 L 930.234375 1080.234375 C 927.761719 1084.085938 923.527344 1086.289062 918.984375 1086.128906 C 914.414062 1085.972656 910.371094 1083.484375 908.164062 1079.476562 L 843.597656 962.070312 C 842.21875 959.570312 839.589844 958.015625 836.730469 958.015625 L 617.390625 958.015625 C 616 958.015625 614.878906 956.886719 614.878906 955.507812 C 614.878906 954.121094 616 953 617.390625 953 L 836.730469 953 C 841.414062 953 845.734375 955.546875 847.992188 959.65625 L 912.5625 1077.058594 C 913.914062 1079.507812 916.375 1081.023438 919.164062 1081.113281 C 921.960938 1081.207031 924.507812 1079.871094 926.011719 1077.519531 L 932.402344 1067.59375 C 934.828125 1063.8125 938.957031 1061.628906 943.441406 1061.6875 C 947.929688 1061.773438 951.976562 1064.132812 954.265625 1067.996094 L 977.941406 1108.003906 C 979.285156 1110.277344 981.574219 1111.671875 984.214844 1111.828125 C 986.839844 1111.988281 989.296875 1110.867188 990.898438 1108.765625 C 993.425781 1105.464844 997.257812 1103.632812 1001.410156 1103.730469 C 1005.5625 1103.828125 1009.3125 1105.84375 1011.679688 1109.261719 L 1025.335938 1129.003906 C 1026.804688 1131.109375 1029.207031 1132.375 1031.777344 1132.375 L 1060.054688 1132.375 C 1061.4375 1132.375 1062.5625 1133.496094 1062.5625 1134.882812 C 1062.5625 1136.261719 1061.4375 1137.390625 1060.054688 1137.390625 " fill-opacity="1" fill-rule="nonzero"/><path fill="#329be2" d="M 1010.054688 1105.867188 C 1010.054688 1102.066406 1006.960938 1098.972656 1003.160156 1098.972656 C 999.347656 1098.972656 996.253906 1102.066406 996.253906 1105.867188 C 996.253906 1109.679688 999.347656 1112.773438 1003.160156 1112.773438 C 1006.960938 1112.773438 1010.054688 1109.679688 1010.054688 1105.867188 " fill-opacity="1" fill-rule="nonzero"/><path fill="#000000" d="M 1003.160156 1093.953125 C 996.585938 1093.953125 991.238281 1099.296875 991.238281 1105.867188 C 991.238281 1112.4375 996.585938 1117.789062 1003.160156 1117.789062 C 1009.726562 1117.789062 1015.070312 1112.4375 1015.070312 1105.867188 C 1015.070312 1099.296875 1009.726562 1093.953125 1003.160156 1093.953125 Z M 1003.160156 1098.972656 C 1006.960938 1098.972656 1010.054688 1102.066406 1010.054688 1105.867188 C 1010.054688 1109.679688 1006.960938 1112.773438 1003.160156 1112.773438 C 999.347656 1112.773438 996.253906 1109.679688 996.253906 1105.867188 C 996.253906 1102.066406 999.347656 1098.972656 1003.160156 1098.972656 " fill-opacity="1" fill-rule="nonzero"/><path fill="#57b6ff" d="M 950.609375 1063.785156 C 950.609375 1059.972656 947.515625 1056.886719 943.703125 1056.886719 C 939.898438 1056.886719 936.808594 1059.972656 936.808594 1063.785156 C 936.808594 1067.597656 939.898438 1070.6875 943.703125 1070.6875 C 947.515625 1070.6875 950.609375 1067.597656 950.609375 1063.785156 " fill-opacity="1" fill-rule="nonzero"/><path fill="#000000" d="M 943.703125 1051.871094 C 937.140625 1051.871094 931.792969 1057.214844 931.792969 1063.785156 C 931.792969 1070.355469 937.140625 1075.699219 943.703125 1075.699219 C 950.277344 1075.699219 955.625 1070.355469 955.625 1063.785156 C 955.625 1057.214844 950.277344 1051.871094 943.703125 1051.871094 Z M 943.703125 1056.886719 C 947.515625 1056.886719 950.609375 1059.972656 950.609375 1063.785156 C 950.609375 1067.597656 947.515625 1070.6875 943.703125 1070.6875 C 939.898438 1070.6875 936.808594 1067.597656 936.808594 1063.785156 C 936.808594 1059.972656 939.898438 1056.886719 943.703125 1056.886719 " fill-opacity="1" fill-rule="nonzero"/><path fill="#329be2" d="M 662.339844 954.4375 C 662.339844 950.625 659.253906 947.539062 655.445312 947.539062 C 651.632812 947.539062 648.546875 950.625 648.546875 954.4375 C 648.546875 958.246094 651.632812 961.339844 655.445312 961.339844 C 659.253906 961.339844 662.339844 958.246094 662.339844 954.4375 " fill-opacity="1" fill-rule="nonzero"/><path fill="#000000" d="M 655.445312 942.519531 C 648.871094 942.519531 643.53125 947.863281 643.53125 954.4375 C 643.53125 961.003906 648.871094 966.347656 655.445312 966.347656 C 662.015625 966.347656 667.355469 961.003906 667.355469 954.4375 C 667.355469 947.863281 662.015625 942.519531 655.445312 942.519531 Z M 655.445312 947.539062 C 659.253906 947.539062 662.339844 950.625 662.339844 954.4375 C 662.339844 958.246094 659.253906 961.339844 655.445312 961.339844 C 651.632812 961.339844 648.546875 958.246094 648.546875 954.4375 C 648.546875 950.625 651.632812 947.539062 655.445312 947.539062 " fill-opacity="1" fill-rule="nonzero"/><path fill="#000000" d="M 745.953125 1196.921875 L 734.8125 1196.863281 C 734.8125 1196.863281 708.136719 1163.117188 690.105469 1161.25 L 688.441406 1066.171875 C 757.480469 1066.398438 818.417969 1105.300781 846.167969 1162.796875 L 745.953125 1196.921875 " fill-opacity="1" fill-rule="nonzero"/><path fill="#000000" d="M 612.753906 1239.066406 C 618.417969 1270.304688 646.871094 1294.867188 681.742188 1295.953125 C 690.328125 1296.214844 700.332031 1291.070312 700.332031 1291.070312 C 700.332031 1291.070312 709.515625 1291.578125 711.085938 1290.964844 L 765.507812 1375.230469 C 740.207031 1386.648438 711.636719 1392.242188 681.742188 1390.523438 C 594.816406 1385.527344 526.464844 1320.097656 518.875 1241.308594 L 612.753906 1239.066406 " fill-opacity="1" fill-rule="nonzero"/><path fill="#000000" d="M 782.539062 1366.363281 L 771.652344 1366.742188 L 727.621094 1281.855469 C 744.050781 1269.691406 754.605469 1250.757812 754.605469 1229.289062 C 754.605469 1224.097656 753.984375 1219.046875 752.8125 1214.179688 L 842.5 1180.328125 L 853.417969 1180.453125 C 858.820312 1196.296875 861.734375 1213.148438 861.734375 1230.609375 C 861.734375 1288.417969 830.011719 1338.191406 782.539062 1366.363281 " fill-opacity="1" fill-rule="nonzero"/><path fill="#329be2" d="M 671.078125 1161.667969 C 639.332031 1166.390625 614.914062 1190.996094 612.019531 1221.402344 L 458.5 1225.851562 C 458.5 1225.820312 458.5 1225.78125 458.5 1225.75 C 458.5 1225.75 458.5 1225.707031 458.5 1225.652344 C 458.496094 1225.539062 435.355469 1221.929688 435.355469 1221.917969 C 435.363281 1220.871094 645.070312 1000.429688 645.070312 1000.429688 L 668.328125 1004.25 C 668.328125 1004.25 670.160156 1109.195312 671.078125 1161.667969 " fill-opacity="1" fill-rule="nonzero"/><path fill="#000000" d="M 440.285156 1220.160156 C 443.554688 1220.671875 448.039062 1221.386719 451.78125 1221.984375 C 453.777344 1222.304688 455.558594 1222.589844 456.84375 1222.800781 C 457.796875 1222.960938 458.617188 1223.105469 459.265625 1223.320312 L 609.769531 1218.960938 C 613.628906 1189.09375 637.355469 1165.085938 668.53125 1159.539062 L 665.855469 1006.386719 L 645.972656 1003.117188 C 580.09375 1072.371094 460.511719 1198.25 440.285156 1220.160156 Z M 458.496094 1225.652344 L 455.988281 1225.675781 Z M 458.5 1228.359375 C 458.003906 1228.359375 457.519531 1228.207031 457.109375 1227.941406 C 454.109375 1227.421875 443.683594 1225.773438 438.925781 1225.023438 C 433.421875 1224.160156 432.847656 1224.070312 432.847656 1221.917969 C 432.859375 1220.550781 432.859375 1220.550781 466.304688 1185.148438 C 483.699219 1166.730469 507.957031 1141.128906 538.394531 1109.050781 C 590.824219 1053.8125 643.25 998.703125 643.25 998.703125 C 643.824219 998.101562 644.652344 997.824219 645.476562 997.949219 L 668.738281 1001.777344 C 669.933594 1001.976562 670.820312 1002.996094 670.835938 1004.203125 L 673.585938 1161.625 C 673.609375 1162.882812 672.691406 1163.957031 671.449219 1164.144531 C 640.71875 1168.714844 617.308594 1192.359375 614.511719 1221.636719 C 614.390625 1222.902344 613.351562 1223.871094 612.085938 1223.910156 L 458.570312 1228.359375 C 458.546875 1228.359375 458.523438 1228.359375 458.5 1228.359375 " fill-opacity="1" fill-rule="nonzero"/><path fill="#329be2" d="M 734.964844 1196.921875 C 723.847656 1177.476562 703.15625 1163.738281 679.128906 1161.25 L 677.453125 1066.171875 C 746.5 1066.398438 807.429688 1105.300781 835.179688 1162.796875 L 734.964844 1196.921875 " fill-opacity="1" fill-rule="nonzero"/><path fill="#000000" d="M 739.6875 1094.523438 C 739.367188 1094.523438 739.050781 1094.464844 738.746094 1094.339844 C 723.535156 1088.1875 707.515625 1084.34375 691.121094 1082.929688 C 689.742188 1082.808594 688.722656 1081.59375 688.84375 1080.214844 C 688.964844 1078.835938 690.175781 1077.804688 691.554688 1077.933594 C 708.445312 1079.390625 724.953125 1083.34375 740.625 1089.6875 C 741.90625 1090.210938 742.527344 1091.675781 742.011719 1092.953125 C 741.617188 1093.933594 740.679688 1094.523438 739.6875 1094.523438 " fill-opacity="1" fill-rule="nonzero"/><path fill="#329be2" d="M 601.773438 1239.066406 C 607.433594 1270.304688 635.890625 1294.867188 670.757812 1295.953125 C 681.15625 1296.277344 691.085938 1294.480469 700.105469 1290.964844 L 754.523438 1375.230469 C 729.226562 1386.648438 700.648438 1392.242188 670.757812 1390.523438 C 583.828125 1385.527344 515.484375 1320.097656 507.894531 1241.308594 L 601.773438 1239.066406 " fill-opacity="1" fill-rule="nonzero"/><path fill="#000000" d="M 681.363281 1379.699219 C 678.058594 1379.699219 674.703125 1379.609375 671.394531 1379.417969 C 670.007812 1379.335938 668.957031 1378.152344 669.03125 1376.765625 C 669.117188 1375.390625 670.3125 1374.328125 671.683594 1374.410156 C 674.898438 1374.59375 678.148438 1374.691406 681.363281 1374.691406 C 699.253906 1374.691406 716.707031 1371.855469 733.246094 1366.277344 C 734.554688 1365.832031 735.980469 1366.535156 736.417969 1367.847656 C 736.867188 1369.167969 736.160156 1370.582031 734.84375 1371.03125 C 717.792969 1376.785156 699.800781 1379.699219 681.363281 1379.699219 " fill-opacity="1" fill-rule="nonzero"/><path fill="#000000" d="M 637.171875 1373.820312 C 636.953125 1373.820312 636.734375 1373.789062 636.511719 1373.726562 C 577.914062 1357.75 532.648438 1311.175781 521.191406 1255.074219 C 520.914062 1253.714844 521.789062 1252.394531 523.148438 1252.117188 C 524.511719 1251.84375 525.828125 1252.714844 526.105469 1254.070312 C 537.1875 1308.335938 581.039062 1353.402344 637.832031 1368.894531 C 639.164062 1369.253906 639.953125 1370.632812 639.589844 1371.96875 C 639.289062 1373.082031 638.277344 1373.820312 637.171875 1373.820312 " fill-opacity="1" fill-rule="nonzero"/><path fill="#329be2" d="M 771.5625 1366.363281 L 716.632812 1281.855469 C 733.0625 1269.691406 743.628906 1250.757812 743.628906 1229.289062 C 743.628906 1224.097656 742.996094 1219.046875 741.828125 1214.179688 L 842.429688 1180.453125 C 847.832031 1196.296875 850.746094 1213.148438 850.746094 1230.609375 C 850.746094 1288.417969 819.03125 1338.191406 771.5625 1366.363281 " fill-opacity="1" fill-rule="nonzero"/><path fill="#ffffff" d="M 647.933594 1157.660156 C 616.1875 1162.382812 591.769531 1186.988281 588.875 1217.394531 L 435.355469 1221.839844 C 435.355469 1221.78125 435.351562 1221.710938 435.351562 1221.644531 C 435.351562 1109.027344 525.085938 1012.644531 645.179688 1000.238281 L 647.933594 1157.660156 " fill-opacity="1" fill-rule="nonzero"/><path fill="#000000" d="M 642.726562 1003.027344 C 526.578125 1016.3125 439.117188 1108.609375 437.875 1219.253906 L 586.625 1214.953125 C 590.480469 1185.085938 614.210938 1161.085938 645.386719 1155.527344 Z M 435.355469 1224.351562 C 434.703125 1224.351562 434.078125 1224.097656 433.609375 1223.636719 C 433.121094 1223.167969 432.847656 1222.523438 432.847656 1221.839844 L 432.847656 1221.644531 C 432.847656 1166.34375 454.351562 1113.074219 493.410156 1071.644531 C 532.632812 1030.03125 586.441406 1003.785156 644.921875 997.746094 C 645.636719 997.679688 646.328125 997.898438 646.851562 998.367188 C 647.371094 998.828125 647.683594 999.5 647.691406 1000.195312 L 650.441406 1157.613281 C 650.464844 1158.871094 649.546875 1159.949219 648.304688 1160.136719 C 617.574219 1164.707031 594.167969 1188.351562 591.367188 1217.628906 C 591.246094 1218.894531 590.207031 1219.863281 588.945312 1219.902344 L 435.429688 1224.351562 C 435.402344 1224.351562 435.378906 1224.351562 435.355469 1224.351562 " fill-opacity="1" fill-rule="nonzero"/><path fill="#ffffff" d="M 1310.707031 558.925781 L 886.886719 558.925781 C 878.222656 558.925781 871.195312 565.945312 871.195312 574.605469 L 871.195312 624.867188 C 871.195312 633.523438 878.222656 640.554688 886.886719 640.554688 L 1310.707031 640.554688 C 1319.375 640.554688 1326.394531 633.523438 1326.394531 624.867188 L 1326.394531 574.605469 C 1326.394531 565.945312 1319.375 558.925781 1310.707031 558.925781 " fill-opacity="1" fill-rule="nonzero"/><path fill="#000000" d="M 886.886719 561.429688 C 879.617188 561.429688 873.699219 567.34375 873.699219 574.605469 L 873.699219 624.867188 C 873.699219 632.136719 879.617188 638.050781 886.886719 638.050781 L 1310.710938 638.050781 C 1317.972656 638.050781 1323.886719 632.136719 1323.886719 624.867188 L 1323.886719 574.605469 C 1323.886719 567.34375 1317.972656 561.429688 1310.710938 561.429688 Z M 1310.710938 643.066406 L 886.886719 643.066406 C 876.855469 643.066406 868.6875 634.898438 868.6875 624.867188 L 868.6875 574.605469 C 868.6875 564.574219 876.855469 556.414062 886.886719 556.414062 L 1310.710938 556.414062 C 1320.746094 556.414062 1328.902344 564.574219 1328.902344 574.605469 L 1328.902344 624.867188 C 1328.902344 634.898438 1320.746094 643.066406 1310.710938 643.066406 " fill-opacity="1" fill-rule="nonzero"/><path fill="#000000" d="M 886.886719 561.429688 C 879.617188 561.429688 873.699219 567.34375 873.699219 574.605469 L 873.699219 624.867188 C 873.699219 632.136719 879.617188 638.050781 886.886719 638.050781 L 1310.710938 638.050781 C 1317.972656 638.050781 1323.886719 632.136719 1323.886719 624.867188 L 1323.886719 574.605469 C 1323.886719 567.34375 1317.972656 561.429688 1310.710938 561.429688 Z M 1310.710938 643.066406 L 886.886719 643.066406 C 876.855469 643.066406 868.6875 634.898438 868.6875 624.867188 L 868.6875 574.605469 C 868.6875 564.574219 876.855469 556.414062 886.886719 556.414062 L 1310.710938 556.414062 C 1320.746094 556.414062 1328.902344 564.574219 1328.902344 574.605469 L 1328.902344 624.867188 C 1328.902344 634.898438 1320.746094 643.066406 1310.710938 643.066406 " fill-opacity="1" fill-rule="nonzero"/><path fill="#ffffff" d="M 971.96875 702.964844 C 918.132812 756.800781 830.847656 756.800781 777.023438 702.964844 C 723.1875 649.136719 723.1875 561.851562 777.023438 508.019531 C 830.847656 454.179688 918.132812 454.179688 971.96875 508.019531 C 1025.808594 561.851562 1025.808594 649.136719 971.96875 702.964844 Z M 981.53125 498.453125 C 922.425781 439.332031 826.570312 439.332031 767.453125 498.453125 C 708.339844 557.566406 708.339844 653.410156 767.453125 712.523438 C 826.570312 771.648438 922.425781 771.648438 981.53125 712.523438 C 1040.65625 653.410156 1040.65625 557.566406 981.53125 498.453125 " fill-opacity="1" fill-rule="nonzero"/><path fill="#329be2" d="M 971.96875 702.964844 C 918.132812 756.800781 830.847656 756.800781 777.023438 702.964844 C 723.1875 649.136719 723.1875 561.851562 777.023438 508.019531 C 830.847656 454.179688 918.132812 454.179688 971.96875 508.019531 C 1025.808594 561.851562 1025.808594 649.136719 971.96875 702.964844 Z M 981.53125 498.453125 C 922.425781 439.332031 826.570312 439.332031 767.453125 498.453125 C 708.339844 557.566406 708.339844 653.410156 767.453125 712.523438 C 826.570312 771.648438 922.425781 771.648438 981.53125 712.523438 C 1040.65625 653.410156 1040.65625 557.566406 981.53125 498.453125 " fill-opacity="1" fill-rule="nonzero"/><path fill="#000000" d="M 874.496094 470.140625 C 838.339844 470.140625 804.359375 484.21875 778.796875 509.785156 C 753.222656 535.351562 739.15625 569.335938 739.15625 605.488281 C 739.15625 641.640625 753.222656 675.625 778.796875 701.191406 C 804.359375 726.75 838.339844 740.828125 874.496094 740.828125 C 910.644531 740.828125 944.632812 726.75 970.195312 701.191406 C 995.757812 675.625 1009.84375 641.640625 1009.84375 605.488281 C 1009.84375 569.335938 995.757812 535.351562 970.195312 509.785156 C 944.632812 484.21875 910.644531 470.140625 874.496094 470.140625 Z M 874.496094 745.847656 C 837.003906 745.847656 801.761719 731.246094 775.253906 704.738281 C 748.730469 678.222656 734.136719 642.976562 734.136719 605.488281 C 734.136719 568 748.730469 532.746094 775.253906 506.238281 C 801.761719 479.722656 837.003906 465.128906 874.496094 465.128906 C 911.988281 465.128906 947.238281 479.722656 973.746094 506.238281 C 1000.25 532.746094 1014.863281 568 1014.863281 605.488281 C 1014.863281 642.976562 1000.25 678.222656 973.746094 704.738281 C 947.238281 731.246094 911.988281 745.847656 874.496094 745.847656 Z M 874.496094 456.621094 C 834.734375 456.621094 797.351562 472.097656 769.238281 500.222656 C 741.109375 528.335938 725.628906 565.71875 725.628906 605.488281 C 725.628906 645.25 741.109375 682.632812 769.238281 710.753906 C 797.351562 738.867188 834.734375 754.355469 874.496094 754.355469 C 914.265625 754.355469 951.648438 738.867188 979.761719 710.753906 C 1037.804688 652.707031 1037.804688 558.261719 979.761719 500.222656 C 951.648438 472.097656 914.265625 456.621094 874.496094 456.621094 Z M 874.496094 759.367188 C 833.394531 759.367188 794.753906 743.363281 765.6875 714.296875 C 736.613281 685.238281 720.609375 646.589844 720.609375 605.488281 C 720.609375 564.378906 736.613281 525.738281 765.6875 496.671875 C 794.753906 467.605469 833.394531 451.601562 874.496094 451.601562 C 915.605469 451.601562 954.246094 467.605469 983.3125 496.671875 C 1043.304688 556.667969 1043.304688 654.296875 983.3125 714.296875 C 954.246094 743.363281 915.605469 759.367188 874.496094 759.367188 " fill-opacity="1" fill-rule="nonzero"/><path fill="#329be2" d="M 604.925781 872.488281 L 607.238281 874.800781 C 612.820312 880.386719 621.878906 880.386719 627.457031 874.800781 L 772.910156 729.347656 L 750.378906 706.8125 L 604.925781 852.265625 C 599.339844 857.851562 599.339844 866.90625 604.925781 872.488281 " fill-opacity="1" fill-rule="nonzero"/><path fill="#000000" d="M 606.699219 870.714844 L 609.011719 873.027344 C 611.238281 875.257812 614.203125 876.484375 617.347656 876.484375 C 620.5 876.484375 623.457031 875.257812 625.683594 873.027344 L 769.363281 729.347656 L 750.378906 710.359375 L 606.699219 854.035156 C 604.472656 856.265625 603.242188 859.226562 603.242188 862.375 C 603.242188 865.527344 604.472656 868.488281 606.699219 870.714844 Z M 617.347656 881.5 C 612.859375 881.5 608.640625 879.75 605.460938 876.574219 L 603.152344 874.265625 C 599.976562 871.089844 598.226562 866.867188 598.226562 862.375 C 598.226562 857.886719 599.976562 853.664062 603.152344 850.492188 L 748.605469 705.039062 C 749.074219 704.566406 749.714844 704.300781 750.378906 704.300781 C 751.039062 704.300781 751.683594 704.566406 752.152344 705.039062 L 774.683594 727.574219 C 775.660156 728.550781 775.660156 730.144531 774.683594 731.121094 L 629.230469 876.574219 C 626.054688 879.75 621.84375 881.5 617.347656 881.5 " fill-opacity="1" fill-rule="nonzero"/><path fill="#000000" d="M 606.699219 870.714844 L 609.011719 873.027344 C 611.238281 875.257812 614.203125 876.484375 617.347656 876.484375 C 620.5 876.484375 623.457031 875.257812 625.683594 873.027344 L 769.363281 729.347656 L 750.378906 710.359375 L 606.699219 854.035156 C 604.472656 856.265625 603.242188 859.226562 603.242188 862.375 C 603.242188 865.527344 604.472656 868.488281 606.699219 870.714844 Z M 617.347656 881.5 C 612.859375 881.5 608.640625 879.75 605.460938 876.574219 L 603.152344 874.265625 C 599.976562 871.089844 598.226562 866.867188 598.226562 862.375 C 598.226562 857.886719 599.976562 853.664062 603.152344 850.492188 L 748.605469 705.039062 C 749.074219 704.566406 749.714844 704.300781 750.378906 704.300781 C 751.039062 704.300781 751.683594 704.566406 752.152344 705.039062 L 774.683594 727.574219 C 775.660156 728.550781 775.660156 730.144531 774.683594 731.121094 L 629.230469 876.574219 C 626.054688 879.75 621.84375 881.5 617.347656 881.5 " fill-opacity="1" fill-rule="nonzero"/><path fill="#ffffff" d="M 687.25 804.09375 L 699.414062 791.933594 L 687.25 804.09375 " fill-opacity="1" fill-rule="nonzero"/><path fill="#000000" d="M 687.25 806.605469 C 686.605469 806.605469 685.960938 806.359375 685.476562 805.871094 C 684.5 804.890625 684.5 803.300781 685.476562 802.320312 L 697.640625 790.160156 C 698.617188 789.179688 700.210938 789.179688 701.1875 790.160156 C 702.164062 791.136719 702.164062 792.726562 701.1875 793.707031 L 689.023438 805.871094 C 688.53125 806.359375 687.886719 806.605469 687.25 806.605469 " fill-opacity="1" fill-rule="nonzero"/><path fill="#000000" d="M 617.347656 873.09375 C 614.484375 873.09375 611.792969 871.984375 609.769531 869.957031 C 605.585938 865.773438 605.585938 858.976562 609.769531 854.792969 L 623.433594 841.125 C 624.417969 840.144531 626 840.144531 626.976562 841.125 C 627.964844 842.101562 627.964844 843.691406 626.976562 844.671875 L 613.316406 858.339844 C 611.085938 860.5625 611.085938 864.183594 613.316406 866.410156 C 615.46875 868.5625 619.234375 868.5625 621.386719 866.410156 L 669.402344 818.394531 C 670.378906 817.417969 671.972656 817.417969 672.949219 818.394531 C 673.929688 819.371094 673.929688 820.964844 672.949219 821.941406 L 624.933594 869.957031 C 622.910156 871.984375 620.21875 873.09375 617.347656 873.09375 " fill-opacity="1" fill-rule="nonzero"/><path fill="#000000" d="M 617.347656 873.09375 C 614.484375 873.09375 611.792969 871.984375 609.769531 869.957031 C 605.585938 865.773438 605.585938 858.976562 609.769531 854.792969 L 623.433594 841.125 C 624.417969 840.144531 626 840.144531 626.976562 841.125 C 627.964844 842.101562 627.964844 843.691406 626.976562 844.671875 L 613.316406 858.339844 C 611.085938 860.5625 611.085938 864.183594 613.316406 866.410156 C 615.46875 868.5625 619.234375 868.5625 621.386719 866.410156 L 669.402344 818.394531 C 670.378906 817.417969 671.972656 817.417969 672.949219 818.394531 C 673.929688 819.371094 673.929688 820.964844 672.949219 821.941406 L 624.933594 869.957031 C 622.910156 871.984375 620.21875 873.09375 617.347656 873.09375 " fill-opacity="1" fill-rule="nonzero"/><path fill="#329be2" d="M 719.746094 736.777344 L 742.953125 759.980469 C 745.875 762.898438 750.613281 762.898438 753.539062 759.980469 L 762.164062 751.355469 C 765.082031 748.429688 765.082031 743.695312 762.164062 740.769531 L 738.957031 717.5625 C 736.035156 714.636719 731.289062 714.636719 728.371094 717.5625 L 719.746094 726.1875 C 716.820312 729.105469 716.820312 733.851562 719.746094 736.777344 " fill-opacity="1" fill-rule="nonzero"/><path fill="#000000" d="M 733.660156 717.882812 C 732.332031 717.882812 731.085938 718.398438 730.144531 719.335938 L 721.519531 727.960938 C 720.582031 728.902344 720.066406 730.152344 720.066406 731.480469 C 720.066406 732.8125 720.582031 734.0625 721.519531 735.003906 L 744.726562 758.207031 C 746.605469 760.089844 749.886719 760.089844 751.765625 758.207031 L 760.390625 749.582031 C 761.328125 748.644531 761.84375 747.394531 761.84375 746.058594 C 761.84375 744.734375 761.328125 743.484375 760.390625 742.542969 L 737.183594 719.335938 C 736.242188 718.398438 734.996094 717.882812 733.660156 717.882812 Z M 748.242188 764.679688 C 745.574219 764.679688 743.066406 763.640625 741.179688 761.753906 L 717.972656 738.546875 C 716.085938 736.664062 715.046875 734.152344 715.046875 731.480469 C 715.046875 728.808594 716.085938 726.300781 717.972656 724.417969 L 726.597656 715.789062 C 728.484375 713.902344 730.992188 712.863281 733.660156 712.863281 C 736.335938 712.863281 738.84375 713.902344 740.730469 715.789062 L 763.929688 738.996094 C 765.824219 740.882812 766.863281 743.390625 766.863281 746.058594 C 766.863281 748.734375 765.824219 751.242188 763.929688 753.128906 L 755.3125 761.753906 C 753.425781 763.640625 750.917969 764.679688 748.242188 764.679688 " fill-opacity="1" fill-rule="nonzero"/><path fill="#000000" d="M 733.660156 717.882812 C 732.332031 717.882812 731.085938 718.398438 730.144531 719.335938 L 721.519531 727.960938 C 720.582031 728.902344 720.066406 730.152344 720.066406 731.480469 C 720.066406 732.8125 720.582031 734.0625 721.519531 735.003906 L 744.726562 758.207031 C 746.605469 760.089844 749.886719 760.089844 751.765625 758.207031 L 760.390625 749.582031 C 761.328125 748.644531 761.84375 747.394531 761.84375 746.058594 C 761.84375 744.734375 761.328125 743.484375 760.390625 742.542969 L 737.183594 719.335938 C 736.242188 718.398438 734.996094 717.882812 733.660156 717.882812 Z M 748.242188 764.679688 C 745.574219 764.679688 743.066406 763.640625 741.179688 761.753906 L 717.972656 738.546875 C 716.085938 736.664062 715.046875 734.152344 715.046875 731.480469 C 715.046875 728.808594 716.085938 726.300781 717.972656 724.417969 L 726.597656 715.789062 C 728.484375 713.902344 730.992188 712.863281 733.660156 712.863281 C 736.335938 712.863281 738.84375 713.902344 740.730469 715.789062 L 763.929688 738.996094 C 765.824219 740.882812 766.863281 743.390625 766.863281 746.058594 C 766.863281 748.734375 765.824219 751.242188 763.929688 753.128906 L 755.3125 761.753906 C 753.425781 763.640625 750.917969 764.679688 748.242188 764.679688 " fill-opacity="1" fill-rule="nonzero"/><path fill="#329be2" d="M 695.835938 760.6875 L 719.035156 783.890625 C 721.960938 786.816406 726.703125 786.816406 729.628906 783.890625 L 738.246094 775.273438 C 741.167969 772.351562 741.167969 767.605469 738.246094 764.679688 L 715.042969 741.484375 C 712.113281 738.558594 707.378906 738.558594 704.453125 741.484375 L 695.835938 750.097656 C 692.910156 753.023438 692.910156 757.765625 695.835938 760.6875 " fill-opacity="1" fill-rule="nonzero"/><path fill="#000000" d="M 697.613281 758.914062 L 720.808594 782.117188 C 722.695312 783.996094 725.96875 783.996094 727.855469 782.117188 L 736.472656 773.5 C 738.414062 771.558594 738.414062 768.402344 736.472656 766.453125 L 713.265625 743.253906 C 711.390625 741.375 708.105469 741.375 706.226562 743.253906 L 697.613281 751.875 C 695.667969 753.8125 695.667969 756.972656 697.613281 758.914062 Z M 724.332031 788.589844 C 721.664062 788.589844 719.148438 787.550781 717.261719 785.664062 L 694.0625 762.464844 C 694.0625 762.460938 694.0625 762.460938 694.0625 762.460938 C 690.160156 758.5625 690.160156 752.21875 694.0625 748.324219 L 702.679688 739.710938 C 704.570312 737.820312 707.074219 736.777344 709.753906 736.777344 C 712.417969 736.777344 714.925781 737.820312 716.816406 739.710938 L 740.019531 762.90625 C 743.914062 766.808594 743.914062 773.144531 740.019531 777.046875 L 731.402344 785.664062 C 729.507812 787.550781 727 788.589844 724.332031 788.589844 " fill-opacity="1" fill-rule="nonzero"/><path fill="#000000" d="M 697.613281 758.914062 L 720.808594 782.117188 C 722.695312 783.996094 725.96875 783.996094 727.855469 782.117188 L 736.472656 773.5 C 738.414062 771.558594 738.414062 768.402344 736.472656 766.453125 L 713.265625 743.253906 C 711.390625 741.375 708.105469 741.375 706.226562 743.253906 L 697.613281 751.875 C 695.667969 753.8125 695.667969 756.972656 697.613281 758.914062 Z M 724.332031 788.589844 C 721.664062 788.589844 719.148438 787.550781 717.261719 785.664062 L 694.0625 762.464844 C 694.0625 762.460938 694.0625 762.460938 694.0625 762.460938 C 690.160156 758.5625 690.160156 752.21875 694.0625 748.324219 L 702.679688 739.710938 C 704.570312 737.820312 707.074219 736.777344 709.753906 736.777344 C 712.417969 736.777344 714.925781 737.820312 716.816406 739.710938 L 740.019531 762.90625 C 743.914062 766.808594 743.914062 773.144531 740.019531 777.046875 L 731.402344 785.664062 C 729.507812 787.550781 727 788.589844 724.332031 788.589844 " fill-opacity="1" fill-rule="nonzero"/><path fill="#000000" d="M 927.648438 498.136719 C 927.28125 498.136719 926.910156 498.0625 926.554688 497.894531 C 915.929688 492.773438 904.605469 489.257812 892.898438 487.460938 C 891.527344 487.246094 890.59375 485.96875 890.800781 484.59375 C 891.011719 483.234375 892.292969 482.292969 893.664062 482.503906 C 905.859375 484.375 917.664062 488.035156 928.734375 493.371094 C 929.980469 493.976562 930.507812 495.480469 929.90625 496.71875 C 929.472656 497.617188 928.578125 498.136719 927.648438 498.136719 " fill-opacity="1" fill-rule="nonzero"/><path fill="#000000" d="M 874.640625 730.105469 C 841.378906 730.105469 810.105469 717.15625 786.585938 693.632812 C 768.945312 675.988281 757.117188 653.761719 752.394531 629.359375 C 752.128906 628 753.015625 626.683594 754.378906 626.417969 C 755.742188 626.160156 757.054688 627.046875 757.3125 628.402344 C 761.855469 651.820312 773.199219 673.15625 790.136719 690.085938 C 812.703125 712.660156 842.722656 725.089844 874.640625 725.089844 C 906.5625 725.089844 936.582031 712.660156 959.152344 690.085938 C 1005.75 643.484375 1005.75 567.667969 959.152344 521.070312 C 958.171875 520.089844 958.171875 518.5 959.152344 517.523438 C 960.132812 516.546875 961.71875 516.546875 962.695312 517.523438 C 1011.253906 566.082031 1011.253906 645.078125 962.695312 693.632812 C 939.179688 717.15625 907.90625 730.105469 874.640625 730.105469 " fill-opacity="1" fill-rule="nonzero"/><path fill="#000000" d="M 886.890625 561.425781 C 879.621094 561.425781 873.710938 567.339844 873.710938 574.605469 L 873.710938 624.863281 C 873.710938 632.132812 879.621094 638.042969 886.890625 638.042969 L 1005.878906 638.042969 C 1012.167969 612.597656 1011 586.183594 1002.488281 561.425781 Z M 1007.828125 643.058594 L 886.890625 643.058594 C 876.855469 643.058594 868.695312 634.898438 868.695312 624.863281 L 868.695312 574.605469 C 868.695312 564.570312 876.855469 556.410156 886.890625 556.410156 L 1004.273438 556.410156 C 1005.324219 556.410156 1006.273438 557.074219 1006.628906 558.070312 C 1016.230469 584.867188 1017.480469 613.609375 1010.25 641.191406 C 1009.960938 642.289062 1008.96875 643.058594 1007.828125 643.058594 " fill-opacity="1" fill-rule="nonzero"/><path fill="#57b6ff" d="M 1322.914062 1249.019531 C 1307.832031 1222.039062 1309.699219 1209.390625 1314.007812 1202.835938 C 1321.667969 1191.148438 1338.816406 1196.074219 1346.410156 1183.386719 C 1354.226562 1170.339844 1340.066406 1158.484375 1345.335938 1141.761719 C 1351.5625 1121.972656 1382.480469 1103.316406 1402.316406 1114.523438 C 1419.28125 1124.109375 1423.746094 1153.042969 1413.660156 1167.996094 C 1402.457031 1184.585938 1377.777344 1177.335938 1370.832031 1192.800781 C 1364.429688 1207.019531 1382.019531 1220.488281 1376.390625 1233.617188 C 1373.148438 1241.160156 1361.886719 1249.503906 1322.914062 1249.019531 " fill-opacity="1" fill-rule="nonzero"/><path fill="#ffffff" d="M 1320.082031 1262.519531 C 1319.820312 1262.519531 1319.535156 1262.480469 1319.265625 1262.382812 C 1317.960938 1261.929688 1317.257812 1260.503906 1317.71875 1259.191406 C 1345.464844 1179.046875 1381.835938 1153.074219 1383.371094 1152.011719 C 1384.515625 1151.214844 1386.078125 1151.503906 1386.863281 1152.640625 C 1387.652344 1153.777344 1387.375 1155.339844 1386.230469 1156.125 C 1385.867188 1156.382812 1349.601562 1182.417969 1322.453125 1260.839844 C 1322.097656 1261.878906 1321.128906 1262.519531 1320.082031 1262.519531 " fill-opacity="1" fill-rule="nonzero"/><path fill="#329be2" d="M 1299.503906 1239.707031 C 1299.355469 1214.507812 1306.570312 1199.167969 1313.183594 1189.816406 C 1325.265625 1172.75 1338.648438 1170.992188 1343.265625 1154.507812 C 1347.621094 1138.941406 1337.425781 1134.21875 1340.84375 1116.683594 C 1344.90625 1095.804688 1360.9375 1094.367188 1365.066406 1077.167969 C 1370.089844 1056.246094 1349.40625 1045.660156 1339.019531 1016.277344 C 1325.589844 978.265625 1347.855469 961.066406 1342.769531 925.570312 C 1334.503906 867.960938 1261.710938 814.855469 1230.578125 829.332031 C 1201.21875 842.984375 1199.085938 921.273438 1222.804688 978.15625 C 1248.097656 1038.792969 1287.261719 1037.910156 1292.957031 1088.597656 C 1296.898438 1123.621094 1280.445312 1144.148438 1288.902344 1197.972656 C 1291.769531 1216.195312 1296.308594 1230.679688 1299.503906 1239.707031 " fill-opacity="1" fill-rule="nonzero"/><path fill="#57b6ff" d="M 1307.230469 1263.675781 C 1306.28125 1263.675781 1305.371094 1263.128906 1304.945312 1262.210938 C 1289.738281 1229.019531 1295.894531 1192.730469 1303.683594 1146.808594 C 1307.765625 1122.738281 1312.398438 1095.453125 1314.183594 1065.4375 C 1319.160156 981.882812 1249.3125 880.726562 1248.605469 879.710938 C 1247.8125 878.574219 1248.089844 877.015625 1249.230469 876.21875 C 1250.363281 875.429688 1251.929688 875.710938 1252.722656 876.839844 C 1253.429688 877.871094 1324.269531 980.460938 1319.195312 1065.738281 C 1317.378906 1096.023438 1312.738281 1123.449219 1308.632812 1147.640625 C 1300.984375 1192.726562 1294.945312 1228.328125 1309.503906 1260.121094 C 1310.085938 1261.378906 1309.535156 1262.871094 1308.269531 1263.445312 C 1307.929688 1263.597656 1307.570312 1263.675781 1307.230469 1263.675781 " fill-opacity="1" fill-rule="nonzero"/><path fill="#57b6ff" d="M 1280.941406 1245.847656 C 1277.558594 1229.8125 1273.992188 1206.199219 1275.171875 1177.71875 C 1277.105469 1131.285156 1290.003906 1111.519531 1277.042969 1094.171875 C 1262.769531 1075.046875 1238.726562 1087.851562 1221.707031 1065.097656 C 1210.097656 1049.582031 1215.921875 1036.46875 1199.972656 1021.875 C 1196.929688 1019.09375 1187.046875 1010.273438 1173.085938 1009.195312 C 1160.144531 1008.1875 1155.574219 1014.769531 1139.058594 1020.527344 C 1109.128906 1030.96875 1095.785156 1019.277344 1084.773438 1030.257812 C 1075.035156 1039.980469 1073.09375 1061.515625 1082.378906 1073.394531 C 1099.886719 1095.769531 1146.175781 1069.71875 1163.539062 1090.9375 C 1178.371094 1109.058594 1152.808594 1138.074219 1169.039062 1158.273438 C 1183.664062 1176.46875 1212.941406 1163.53125 1224.941406 1182.578125 C 1234.121094 1197.140625 1221.277344 1211.480469 1229.78125 1226.667969 C 1238.648438 1242.5 1263.058594 1245.53125 1280.941406 1245.847656 " fill-opacity="1" fill-rule="nonzero"/><path fill="#ffffff" d="M 1292.070312 1262.984375 C 1291.539062 1262.984375 1290.996094 1262.816406 1290.546875 1262.457031 C 1275.160156 1250.5625 1269.875 1230.941406 1261.890625 1201.226562 C 1255.886719 1178.90625 1248.410156 1151.132812 1233.976562 1117.121094 C 1201.730469 1041.148438 1113.773438 1049.882812 1112.890625 1049.984375 C 1111.507812 1050.125 1110.269531 1049.132812 1110.125 1047.765625 C 1109.96875 1046.382812 1110.964844 1045.148438 1112.347656 1044.996094 C 1113.285156 1044.890625 1135.707031 1042.546875 1162.609375 1049.929688 C 1187.550781 1056.78125 1220.984375 1073.652344 1238.601562 1115.160156 C 1253.179688 1149.488281 1260.691406 1177.453125 1266.730469 1199.921875 C 1274.464844 1228.65625 1279.566406 1247.628906 1293.617188 1258.488281 C 1294.699219 1259.339844 1294.90625 1260.917969 1294.058594 1262.011719 C 1293.5625 1262.652344 1292.820312 1262.984375 1292.070312 1262.984375 " fill-opacity="1" fill-rule="nonzero"/><path fill="#329be2" d="M 1236.277344 1260.015625 C 1238.792969 1261.136719 1367.863281 1260.015625 1367.863281 1260.015625 L 1351.753906 1391.742188 C 1351.3125 1395.296875 1350.546875 1398.824219 1349.238281 1402.15625 C 1342.890625 1418.328125 1327.191406 1429.363281 1309.320312 1429.363281 C 1289.335938 1429.363281 1271.992188 1415.554688 1267.527344 1396.078125 L 1236.277344 1260.015625 " fill-opacity="1" fill-rule="nonzero"/><path fill="#329be2" d="M 1016.871094 1385.914062 C 1016.4375 1385.914062 1016.007812 1385.804688 1015.617188 1385.582031 C 1014.839844 1385.132812 1014.371094 1384.304688 1014.371094 1383.40625 L 1014.371094 1298.824219 L 879.015625 1366.722656 C 877.773438 1367.347656 876.265625 1366.84375 875.644531 1365.601562 C 875.03125 1364.367188 875.53125 1362.859375 876.765625 1362.238281 L 1015.742188 1292.519531 C 1016.53125 1292.125 1017.449219 1292.164062 1018.183594 1292.625 C 1018.929688 1293.078125 1019.378906 1293.886719 1019.378906 1294.753906 L 1019.378906 1379.046875 L 1168.601562 1292.140625 C 1169.800781 1291.441406 1171.335938 1291.847656 1172.03125 1293.046875 C 1172.726562 1294.238281 1172.320312 1295.777344 1171.128906 1296.472656 L 1018.136719 1385.574219 C 1017.746094 1385.800781 1017.308594 1385.914062 1016.871094 1385.914062 " fill-opacity="1" fill-rule="nonzero"/><path fill="#329be2" d="M 1192.730469 1272.605469 C 1192.730469 1264.78125 1199.078125 1258.445312 1206.898438 1258.445312 C 1214.714844 1258.445312 1221.0625 1264.78125 1221.0625 1272.605469 C 1221.0625 1280.429688 1214.714844 1286.765625 1206.898438 1286.765625 C 1199.078125 1286.765625 1192.730469 1280.429688 1192.730469 1272.605469 " fill-opacity="1" fill-rule="nonzero"/><path fill="#329be2" d="M 1003.171875 1383.367188 C 1003.171875 1375.546875 1009.515625 1369.203125 1017.335938 1369.203125 C 1025.15625 1369.203125 1031.5 1375.546875 1031.5 1383.367188 C 1031.5 1391.1875 1025.15625 1397.53125 1017.335938 1397.53125 C 1009.515625 1397.53125 1003.171875 1391.1875 1003.171875 1383.367188 " fill-opacity="1" fill-rule="nonzero"/><path fill="#329be2" d="M 1003.171875 1294.753906 C 1003.171875 1286.929688 1009.515625 1280.597656 1017.335938 1280.597656 C 1025.15625 1280.597656 1031.5 1286.929688 1031.5 1294.753906 C 1031.5 1302.582031 1025.15625 1308.917969 1017.335938 1308.917969 C 1009.515625 1308.917969 1003.171875 1302.582031 1003.171875 1294.753906 " fill-opacity="1" fill-rule="nonzero"/><path fill="#329be2" d="M 824.503906 1389.535156 C 824.503906 1381.714844 830.847656 1375.371094 838.667969 1375.371094 C 846.488281 1375.371094 852.832031 1381.714844 852.832031 1389.535156 C 852.832031 1397.359375 846.488281 1403.703125 838.667969 1403.703125 C 830.847656 1403.703125 824.503906 1397.359375 824.503906 1389.535156 " fill-opacity="1" fill-rule="nonzero"/><path fill="#329be2" d="M 234.777344 195.457031 C 233.910156 195.457031 233.070312 195.007812 232.605469 194.203125 C 231.910156 193.015625 232.3125 191.480469 233.511719 190.777344 L 386.503906 101.671875 C 387.699219 100.976562 389.238281 101.390625 389.933594 102.578125 C 390.628906 103.78125 390.226562 105.3125 389.027344 106.011719 L 236.035156 195.113281 C 235.640625 195.347656 235.207031 195.457031 234.777344 195.457031 " fill-opacity="1" fill-rule="nonzero"/><path fill="#000000" d="M 137.03125 346.863281 C 132.1875 346.863281 128.253906 350.800781 128.253906 355.640625 C 128.253906 360.484375 132.1875 364.417969 137.03125 364.417969 C 141.871094 364.417969 145.808594 360.484375 145.808594 355.640625 C 145.808594 350.800781 141.871094 346.863281 137.03125 346.863281 Z M 137.03125 369.4375 C 129.425781 369.4375 123.234375 363.253906 123.234375 355.640625 C 123.234375 348.039062 129.425781 341.847656 137.03125 341.847656 C 144.636719 341.847656 150.828125 348.039062 150.828125 355.640625 C 150.828125 363.253906 144.636719 369.4375 137.03125 369.4375 " fill-opacity="1" fill-rule="nonzero"/><path fill="#000000" d="M 1396.765625 821.71875 C 1396.117188 821.71875 1395.480469 821.476562 1394.984375 820.980469 L 1389.238281 815.230469 C 1388.253906 814.253906 1388.253906 812.660156 1389.238281 811.683594 C 1390.214844 810.707031 1391.800781 810.707031 1392.777344 811.683594 L 1398.535156 817.4375 C 1399.511719 818.414062 1399.511719 820.003906 1398.535156 820.980469 C 1398.042969 821.476562 1397.402344 821.71875 1396.765625 821.71875 " fill-opacity="1" fill-rule="nonzero"/><path fill="#000000" d="M 1418.484375 843.445312 C 1417.847656 843.445312 1417.210938 843.195312 1416.71875 842.707031 L 1410.964844 836.957031 C 1409.984375 835.980469 1409.984375 834.390625 1410.964844 833.410156 C 1411.945312 832.433594 1413.535156 832.433594 1414.515625 833.410156 L 1420.261719 839.160156 C 1421.238281 840.140625 1421.238281 841.730469 1420.261719 842.707031 C 1419.769531 843.195312 1419.132812 843.445312 1418.484375 843.445312 " fill-opacity="1" fill-rule="nonzero"/><path fill="#000000" d="M 1391.007812 843.445312 C 1390.371094 843.445312 1389.722656 843.195312 1389.238281 842.710938 C 1388.253906 841.730469 1388.253906 840.140625 1389.238281 839.164062 L 1394.984375 833.410156 C 1395.960938 832.433594 1397.558594 832.433594 1398.535156 833.410156 C 1399.511719 834.390625 1399.511719 835.980469 1398.535156 836.957031 L 1392.777344 842.710938 C 1392.296875 843.195312 1391.648438 843.445312 1391.007812 843.445312 " fill-opacity="1" fill-rule="nonzero"/><path fill="#000000" d="M 1412.738281 821.714844 C 1412.09375 821.714844 1411.457031 821.472656 1410.964844 820.980469 C 1409.984375 820.003906 1409.984375 818.414062 1410.964844 817.4375 L 1416.71875 811.683594 C 1417.691406 810.707031 1419.289062 810.707031 1420.261719 811.683594 C 1421.238281 812.660156 1421.238281 814.253906 1420.261719 815.230469 L 1414.515625 820.980469 C 1414.011719 821.472656 1413.386719 821.714844 1412.738281 821.714844 " fill-opacity="1" fill-rule="nonzero"/></svg>